<?xml version="1.0" encoding="UTF-8" standalone="no"?>
<!DOCTYPE svg PUBLIC "-//W3C//DTD SVG 1.1//EN"
 "http://www.w3.org/Graphics/SVG/1.1/DTD/svg11.dtd">
<!-- Generated by graphviz version 2.43.0 (0)
 -->
<!-- Title: GCS region connectivity Pages: 1 -->
<svg width="544pt" height="2060pt"
 viewBox="0.00 0.00 543.55 2060.00" xmlns="http://www.w3.org/2000/svg" xmlns:xlink="http://www.w3.org/1999/xlink">
<g id="graph0" class="graph" transform="scale(1 1) rotate(0) translate(4 2056)">
<title>GCS region connectivity</title>
<polygon fill="white" stroke="transparent" points="-4,4 -4,-2056 539.55,-2056 539.55,4 -4,4"/>
<!-- 1 -->
<g id="node1" class="node">
<title>1</title>
<ellipse fill="none" stroke="black" cx="192" cy="-2034" rx="27" ry="18"/>
<text text-anchor="middle" x="192" y="-2030.3" font-family="Times,serif" font-size="14.00">1</text>
</g>
<!-- 2 -->
<g id="node2" class="node">
<title>2</title>
<ellipse fill="none" stroke="black" cx="192" cy="-1962" rx="27" ry="18"/>
<text text-anchor="middle" x="192" y="-1958.3" font-family="Times,serif" font-size="14.00">2</text>
</g>
<!-- 1&#45;&gt;2 -->
<g id="edge1" class="edge">
<title>1&#45;&gt;2</title>
<path fill="none" stroke="black" d="M192,-2005.67C192,-2000.69 192,-1995.49 192,-1990.51"/>
<polygon fill="black" stroke="black" points="188.5,-2005.7 192,-2015.7 195.5,-2005.7 188.5,-2005.7"/>
<polygon fill="black" stroke="black" points="195.5,-1990.1 192,-1980.1 188.5,-1990.1 195.5,-1990.1"/>
</g>
<!-- 3 -->
<g id="node3" class="node">
<title>3</title>
<ellipse fill="none" stroke="black" cx="192" cy="-1890" rx="27" ry="18"/>
<text text-anchor="middle" x="192" y="-1886.3" font-family="Times,serif" font-size="14.00">3</text>
</g>
<!-- 2&#45;&gt;3 -->
<g id="edge2" class="edge">
<title>2&#45;&gt;3</title>
<path fill="none" stroke="black" d="M192,-1933.67C192,-1928.69 192,-1923.49 192,-1918.51"/>
<polygon fill="black" stroke="black" points="188.5,-1933.7 192,-1943.7 195.5,-1933.7 188.5,-1933.7"/>
<polygon fill="black" stroke="black" points="195.5,-1918.1 192,-1908.1 188.5,-1918.1 195.5,-1918.1"/>
</g>
<!-- 4 -->
<g id="node4" class="node">
<title>4</title>
<ellipse fill="none" stroke="black" cx="192" cy="-1818" rx="27" ry="18"/>
<text text-anchor="middle" x="192" y="-1814.3" font-family="Times,serif" font-size="14.00">4</text>
</g>
<!-- 3&#45;&gt;4 -->
<g id="edge3" class="edge">
<title>3&#45;&gt;4</title>
<path fill="none" stroke="black" d="M192,-1861.67C192,-1856.69 192,-1851.49 192,-1846.51"/>
<polygon fill="black" stroke="black" points="188.5,-1861.7 192,-1871.7 195.5,-1861.7 188.5,-1861.7"/>
<polygon fill="black" stroke="black" points="195.5,-1846.1 192,-1836.1 188.5,-1846.1 195.5,-1846.1"/>
</g>
<!-- 5 -->
<g id="node5" class="node">
<title>5</title>
<ellipse fill="none" stroke="black" cx="165" cy="-1746" rx="27" ry="18"/>
<text text-anchor="middle" x="165" y="-1742.3" font-family="Times,serif" font-size="14.00">5</text>
</g>
<!-- 4&#45;&gt;5 -->
<g id="edge4" class="edge">
<title>4&#45;&gt;5</title>
<path fill="none" stroke="black" d="M181.99,-1791.06C179.76,-1785.26 177.38,-1779.1 175.14,-1773.29"/>
<polygon fill="black" stroke="black" points="178.74,-1792.34 185.6,-1800.41 185.27,-1789.82 178.74,-1792.34"/>
<polygon fill="black" stroke="black" points="178.4,-1772.03 171.54,-1763.96 171.87,-1774.55 178.4,-1772.03"/>
</g>
<!-- 6 -->
<g id="node6" class="node">
<title>6</title>
<ellipse fill="none" stroke="black" cx="192" cy="-1674" rx="27" ry="18"/>
<text text-anchor="middle" x="192" y="-1670.3" font-family="Times,serif" font-size="14.00">6</text>
</g>
<!-- 4&#45;&gt;6 -->
<g id="edge5" class="edge">
<title>4&#45;&gt;6</title>
<path fill="none" stroke="black" d="M197.49,-1789.99C198.93,-1781.69 200.28,-1772.5 201,-1764 202.34,-1748.06 202.34,-1743.94 201,-1728 200.28,-1719.5 198.93,-1710.31 197.49,-1702.01"/>
<polygon fill="black" stroke="black" points="194.03,-1789.44 195.65,-1799.91 200.91,-1790.71 194.03,-1789.44"/>
<polygon fill="black" stroke="black" points="200.91,-1701.29 195.65,-1692.09 194.03,-1702.56 200.91,-1701.29"/>
</g>
<!-- 5&#45;&gt;6 -->
<g id="edge6" class="edge">
<title>5&#45;&gt;6</title>
<path fill="none" stroke="black" d="M175.01,-1719.06C177.24,-1713.26 179.62,-1707.1 181.86,-1701.29"/>
<polygon fill="black" stroke="black" points="171.73,-1717.82 171.4,-1728.41 178.26,-1720.34 171.73,-1717.82"/>
<polygon fill="black" stroke="black" points="185.13,-1702.55 185.46,-1691.96 178.6,-1700.03 185.13,-1702.55"/>
</g>
<!-- 7 -->
<g id="node7" class="node">
<title>7</title>
<ellipse fill="none" stroke="black" cx="192" cy="-1602" rx="27" ry="18"/>
<text text-anchor="middle" x="192" y="-1598.3" font-family="Times,serif" font-size="14.00">7</text>
</g>
<!-- 6&#45;&gt;7 -->
<g id="edge7" class="edge">
<title>6&#45;&gt;7</title>
<path fill="none" stroke="black" d="M192,-1645.67C192,-1640.69 192,-1635.49 192,-1630.51"/>
<polygon fill="black" stroke="black" points="188.5,-1645.7 192,-1655.7 195.5,-1645.7 188.5,-1645.7"/>
<polygon fill="black" stroke="black" points="195.5,-1630.1 192,-1620.1 188.5,-1630.1 195.5,-1630.1"/>
</g>
<!-- 8 -->
<g id="node8" class="node">
<title>8</title>
<ellipse fill="none" stroke="black" cx="156" cy="-1530" rx="27" ry="18"/>
<text text-anchor="middle" x="156" y="-1526.3" font-family="Times,serif" font-size="14.00">8</text>
</g>
<!-- 7&#45;&gt;8 -->
<g id="edge8" class="edge">
<title>7&#45;&gt;8</title>
<path fill="none" stroke="black" d="M178.99,-1575.7C175.7,-1569.3 172.17,-1562.44 168.88,-1556.05"/>
<polygon fill="black" stroke="black" points="175.96,-1577.47 183.65,-1584.76 182.19,-1574.27 175.96,-1577.47"/>
<polygon fill="black" stroke="black" points="171.99,-1554.44 164.3,-1547.15 165.77,-1557.64 171.99,-1554.44"/>
</g>
<!-- 9 -->
<g id="node9" class="node">
<title>9</title>
<ellipse fill="none" stroke="black" cx="228" cy="-1530" rx="27" ry="18"/>
<text text-anchor="middle" x="228" y="-1526.3" font-family="Times,serif" font-size="14.00">9</text>
</g>
<!-- 7&#45;&gt;9 -->
<g id="edge9" class="edge">
<title>7&#45;&gt;9</title>
<path fill="none" stroke="black" d="M205.01,-1575.7C208.3,-1569.3 211.83,-1562.44 215.12,-1556.05"/>
<polygon fill="black" stroke="black" points="201.81,-1574.27 200.35,-1584.76 208.04,-1577.47 201.81,-1574.27"/>
<polygon fill="black" stroke="black" points="218.23,-1557.64 219.7,-1547.15 212.01,-1554.44 218.23,-1557.64"/>
</g>
<!-- 10 -->
<g id="node10" class="node">
<title>10</title>
<ellipse fill="none" stroke="black" cx="228" cy="-1458" rx="27" ry="18"/>
<text text-anchor="middle" x="228" y="-1454.3" font-family="Times,serif" font-size="14.00">10</text>
</g>
<!-- 9&#45;&gt;10 -->
<g id="edge10" class="edge">
<title>9&#45;&gt;10</title>
<path fill="none" stroke="black" d="M228,-1501.67C228,-1496.69 228,-1491.49 228,-1486.51"/>
<polygon fill="black" stroke="black" points="224.5,-1501.7 228,-1511.7 231.5,-1501.7 224.5,-1501.7"/>
<polygon fill="black" stroke="black" points="231.5,-1486.1 228,-1476.1 224.5,-1486.1 231.5,-1486.1"/>
</g>
<!-- 11 -->
<g id="node11" class="node">
<title>11</title>
<ellipse fill="none" stroke="black" cx="182" cy="-1386" rx="27" ry="18"/>
<text text-anchor="middle" x="182" y="-1382.3" font-family="Times,serif" font-size="14.00">11</text>
</g>
<!-- 9&#45;&gt;11 -->
<g id="edge11" class="edge">
<title>9&#45;&gt;11</title>
<path fill="none" stroke="black" d="M208.58,-1505.7C202.26,-1496.91 195.88,-1486.48 192,-1476 184.68,-1456.22 182.31,-1432.42 181.7,-1414.41"/>
<polygon fill="black" stroke="black" points="205.96,-1508.03 214.79,-1513.89 211.54,-1503.8 205.96,-1508.03"/>
<polygon fill="black" stroke="black" points="185.2,-1414.23 181.52,-1404.29 178.2,-1414.35 185.2,-1414.23"/>
</g>
<!-- 12 -->
<g id="node12" class="node">
<title>12</title>
<ellipse fill="none" stroke="black" cx="237" cy="-1314" rx="27" ry="18"/>
<text text-anchor="middle" x="237" y="-1310.3" font-family="Times,serif" font-size="14.00">12</text>
</g>
<!-- 9&#45;&gt;12 -->
<g id="edge12" class="edge">
<title>9&#45;&gt;12</title>
<path fill="none" stroke="black" d="M248.07,-1505.92C254.46,-1497.15 260.71,-1486.69 264,-1476 278.28,-1429.56 261.32,-1373.11 248.56,-1340.89"/>
<polygon fill="black" stroke="black" points="245.12,-1504.02 241.75,-1514.07 250.65,-1508.31 245.12,-1504.02"/>
<polygon fill="black" stroke="black" points="251.67,-1339.23 244.61,-1331.32 245.2,-1341.9 251.67,-1339.23"/>
</g>
<!-- 10&#45;&gt;11 -->
<g id="edge13" class="edge">
<title>10&#45;&gt;11</title>
<path fill="none" stroke="black" d="M211.91,-1432.51C207.46,-1425.74 202.62,-1418.39 198.17,-1411.6"/>
<polygon fill="black" stroke="black" points="209.15,-1434.68 217.56,-1441.12 215,-1430.84 209.15,-1434.68"/>
<polygon fill="black" stroke="black" points="200.81,-1409.26 192.4,-1402.82 194.96,-1413.1 200.81,-1409.26"/>
</g>
<!-- 10&#45;&gt;12 -->
<g id="edge14" class="edge">
<title>10&#45;&gt;12</title>
<path fill="none" stroke="black" d="M229.73,-1429.68C231.32,-1404.6 233.66,-1367.63 235.26,-1342.49"/>
<polygon fill="black" stroke="black" points="226.23,-1429.67 229.09,-1439.87 233.21,-1430.11 226.23,-1429.67"/>
<polygon fill="black" stroke="black" points="238.77,-1342.39 235.91,-1332.19 231.78,-1341.95 238.77,-1342.39"/>
</g>
<!-- 11&#45;&gt;12 -->
<g id="edge15" class="edge">
<title>11&#45;&gt;12</title>
<path fill="none" stroke="black" d="M200.17,-1361.87C206.19,-1354.21 212.88,-1345.69 218.9,-1338.04"/>
<polygon fill="black" stroke="black" points="197.36,-1359.79 193.93,-1369.81 202.86,-1364.11 197.36,-1359.79"/>
<polygon fill="black" stroke="black" points="221.66,-1340.18 225.09,-1330.16 216.16,-1335.86 221.66,-1340.18"/>
</g>
<!-- 13 -->
<g id="node13" class="node">
<title>13</title>
<ellipse fill="none" stroke="black" cx="237" cy="-1242" rx="27" ry="18"/>
<text text-anchor="middle" x="237" y="-1238.3" font-family="Times,serif" font-size="14.00">13</text>
</g>
<!-- 12&#45;&gt;13 -->
<g id="edge16" class="edge">
<title>12&#45;&gt;13</title>
<path fill="none" stroke="black" d="M237,-1285.67C237,-1280.69 237,-1275.49 237,-1270.51"/>
<polygon fill="black" stroke="black" points="233.5,-1285.7 237,-1295.7 240.5,-1285.7 233.5,-1285.7"/>
<polygon fill="black" stroke="black" points="240.5,-1270.1 237,-1260.1 233.5,-1270.1 240.5,-1270.1"/>
</g>
<!-- 14 -->
<g id="node14" class="node">
<title>14</title>
<ellipse fill="none" stroke="black" cx="210" cy="-1170" rx="27" ry="18"/>
<text text-anchor="middle" x="210" y="-1166.3" font-family="Times,serif" font-size="14.00">14</text>
</g>
<!-- 13&#45;&gt;14 -->
<g id="edge17" class="edge">
<title>13&#45;&gt;14</title>
<path fill="none" stroke="black" d="M226.99,-1215.06C224.76,-1209.26 222.38,-1203.1 220.14,-1197.29"/>
<polygon fill="black" stroke="black" points="223.74,-1216.34 230.6,-1224.41 230.27,-1213.82 223.74,-1216.34"/>
<polygon fill="black" stroke="black" points="223.4,-1196.03 216.54,-1187.96 216.87,-1198.55 223.4,-1196.03"/>
</g>
<!-- 37 -->
<g id="node37" class="node">
<title>37</title>
<ellipse fill="none" stroke="black" cx="265" cy="-1098" rx="27" ry="18"/>
<text text-anchor="middle" x="265" y="-1094.3" font-family="Times,serif" font-size="14.00">37</text>
</g>
<!-- 13&#45;&gt;37 -->
<g id="edge18" class="edge">
<title>13&#45;&gt;37</title>
<path fill="none" stroke="black" d="M242.31,-1214.06C247.28,-1188.88 254.65,-1151.47 259.64,-1126.2"/>
<polygon fill="black" stroke="black" points="238.88,-1213.38 240.38,-1223.87 245.75,-1214.74 238.88,-1213.38"/>
<polygon fill="black" stroke="black" points="263.11,-1126.68 261.61,-1116.19 256.24,-1125.32 263.11,-1126.68"/>
</g>
<!-- 15 -->
<g id="node15" class="node">
<title>15</title>
<ellipse fill="none" stroke="black" cx="193" cy="-1098" rx="27" ry="18"/>
<text text-anchor="middle" x="193" y="-1094.3" font-family="Times,serif" font-size="14.00">15</text>
</g>
<!-- 14&#45;&gt;15 -->
<g id="edge19" class="edge">
<title>14&#45;&gt;15</title>
<path fill="none" stroke="black" d="M203.51,-1142.29C202.22,-1136.97 200.87,-1131.39 199.57,-1126.06"/>
<polygon fill="black" stroke="black" points="200.12,-1143.16 205.88,-1152.05 206.93,-1141.51 200.12,-1143.16"/>
<polygon fill="black" stroke="black" points="202.96,-1125.17 197.2,-1116.28 196.15,-1126.82 202.96,-1125.17"/>
</g>
<!-- 14&#45;&gt;37 -->
<g id="edge20" class="edge">
<title>14&#45;&gt;37</title>
<path fill="none" stroke="black" d="M228.17,-1145.87C234.19,-1138.21 240.88,-1129.69 246.9,-1122.04"/>
<polygon fill="black" stroke="black" points="225.36,-1143.79 221.93,-1153.81 230.86,-1148.11 225.36,-1143.79"/>
<polygon fill="black" stroke="black" points="249.66,-1124.18 253.09,-1114.16 244.16,-1119.86 249.66,-1124.18"/>
</g>
<!-- 16 -->
<g id="node16" class="node">
<title>16</title>
<ellipse fill="none" stroke="black" cx="121" cy="-1026" rx="27" ry="18"/>
<text text-anchor="middle" x="121" y="-1022.3" font-family="Times,serif" font-size="14.00">16</text>
</g>
<!-- 15&#45;&gt;16 -->
<g id="edge21" class="edge">
<title>15&#45;&gt;16</title>
<path fill="none" stroke="black" d="M170.96,-1075.57C162.13,-1066.99 151.99,-1057.13 143.15,-1048.54"/>
<polygon fill="black" stroke="black" points="168.82,-1078.37 178.43,-1082.83 173.7,-1073.35 168.82,-1078.37"/>
<polygon fill="black" stroke="black" points="145.41,-1045.85 135.8,-1041.38 140.53,-1050.87 145.41,-1045.85"/>
</g>
<!-- 17 -->
<g id="node17" class="node">
<title>17</title>
<ellipse fill="none" stroke="black" cx="193" cy="-1026" rx="27" ry="18"/>
<text text-anchor="middle" x="193" y="-1022.3" font-family="Times,serif" font-size="14.00">17</text>
</g>
<!-- 15&#45;&gt;17 -->
<g id="edge22" class="edge">
<title>15&#45;&gt;17</title>
<path fill="none" stroke="black" d="M193,-1069.67C193,-1064.69 193,-1059.49 193,-1054.51"/>
<polygon fill="black" stroke="black" points="189.5,-1069.7 193,-1079.7 196.5,-1069.7 189.5,-1069.7"/>
<polygon fill="black" stroke="black" points="196.5,-1054.1 193,-1044.1 189.5,-1054.1 196.5,-1054.1"/>
</g>
<!-- 18 -->
<g id="node18" class="node">
<title>18</title>
<ellipse fill="none" stroke="black" cx="193" cy="-954" rx="27" ry="18"/>
<text text-anchor="middle" x="193" y="-950.3" font-family="Times,serif" font-size="14.00">18</text>
</g>
<!-- 17&#45;&gt;18 -->
<g id="edge23" class="edge">
<title>17&#45;&gt;18</title>
<path fill="none" stroke="black" d="M193,-997.67C193,-992.69 193,-987.49 193,-982.51"/>
<polygon fill="black" stroke="black" points="189.5,-997.7 193,-1007.7 196.5,-997.7 189.5,-997.7"/>
<polygon fill="black" stroke="black" points="196.5,-982.1 193,-972.1 189.5,-982.1 196.5,-982.1"/>
</g>
<!-- 19 -->
<g id="node19" class="node">
<title>19</title>
<ellipse fill="none" stroke="black" cx="193" cy="-882" rx="27" ry="18"/>
<text text-anchor="middle" x="193" y="-878.3" font-family="Times,serif" font-size="14.00">19</text>
</g>
<!-- 18&#45;&gt;19 -->
<g id="edge24" class="edge">
<title>18&#45;&gt;19</title>
<path fill="none" stroke="black" d="M193,-925.67C193,-920.69 193,-915.49 193,-910.51"/>
<polygon fill="black" stroke="black" points="189.5,-925.7 193,-935.7 196.5,-925.7 189.5,-925.7"/>
<polygon fill="black" stroke="black" points="196.5,-910.1 193,-900.1 189.5,-910.1 196.5,-910.1"/>
</g>
<!-- 20 -->
<g id="node20" class="node">
<title>20</title>
<ellipse fill="none" stroke="black" cx="193" cy="-810" rx="27" ry="18"/>
<text text-anchor="middle" x="193" y="-806.3" font-family="Times,serif" font-size="14.00">20</text>
</g>
<!-- 19&#45;&gt;20 -->
<g id="edge25" class="edge">
<title>19&#45;&gt;20</title>
<path fill="none" stroke="black" d="M193,-853.67C193,-848.69 193,-843.49 193,-838.51"/>
<polygon fill="black" stroke="black" points="189.5,-853.7 193,-863.7 196.5,-853.7 189.5,-853.7"/>
<polygon fill="black" stroke="black" points="196.5,-838.1 193,-828.1 189.5,-838.1 196.5,-838.1"/>
</g>
<!-- 21 -->
<g id="node21" class="node">
<title>21</title>
<ellipse fill="none" stroke="black" cx="142" cy="-738" rx="27" ry="18"/>
<text text-anchor="middle" x="142" y="-734.3" font-family="Times,serif" font-size="14.00">21</text>
</g>
<!-- 20&#45;&gt;21 -->
<g id="edge26" class="edge">
<title>20&#45;&gt;21</title>
<path fill="none" stroke="black" d="M175.76,-785.34C170.43,-778.02 164.56,-769.97 159.23,-762.65"/>
<polygon fill="black" stroke="black" points="172.96,-787.44 181.68,-793.46 178.62,-783.32 172.96,-787.44"/>
<polygon fill="black" stroke="black" points="162,-760.51 153.29,-754.49 156.35,-764.64 162,-760.51"/>
</g>
<!-- 22 -->
<g id="node22" class="node">
<title>22</title>
<ellipse fill="none" stroke="black" cx="150" cy="-666" rx="27" ry="18"/>
<text text-anchor="middle" x="150" y="-662.3" font-family="Times,serif" font-size="14.00">22</text>
</g>
<!-- 20&#45;&gt;22 -->
<g id="edge27" class="edge">
<title>20&#45;&gt;22</title>
<path fill="none" stroke="black" d="M190.69,-781.82C188.62,-763.91 184.82,-740.13 178,-720 174.76,-710.45 169.96,-700.53 165.25,-691.89"/>
<polygon fill="black" stroke="black" points="187.22,-782.29 191.74,-791.88 194.18,-781.56 187.22,-782.29"/>
<polygon fill="black" stroke="black" points="168.23,-690.06 160.24,-683.1 162.15,-693.52 168.23,-690.06"/>
</g>
<!-- 21&#45;&gt;22 -->
<g id="edge28" class="edge">
<title>21&#45;&gt;22</title>
<path fill="none" stroke="black" d="M145.12,-709.67C145.71,-704.55 146.32,-699.21 146.9,-694.1"/>
<polygon fill="black" stroke="black" points="141.64,-709.36 143.98,-719.7 148.59,-710.16 141.64,-709.36"/>
<polygon fill="black" stroke="black" points="150.39,-694.44 148.05,-684.1 143.43,-693.64 150.39,-694.44"/>
</g>
<!-- 23 -->
<g id="node23" class="node">
<title>23</title>
<ellipse fill="none" stroke="black" cx="78" cy="-594" rx="27" ry="18"/>
<text text-anchor="middle" x="78" y="-590.3" font-family="Times,serif" font-size="14.00">23</text>
</g>
<!-- 22&#45;&gt;23 -->
<g id="edge29" class="edge">
<title>22&#45;&gt;23</title>
<path fill="none" stroke="black" d="M127.96,-643.57C119.13,-634.99 108.99,-625.13 100.15,-616.54"/>
<polygon fill="black" stroke="black" points="125.82,-646.37 135.43,-650.83 130.7,-641.35 125.82,-646.37"/>
<polygon fill="black" stroke="black" points="102.41,-613.85 92.8,-609.38 97.53,-618.87 102.41,-613.85"/>
</g>
<!-- 25 -->
<g id="node25" class="node">
<title>25</title>
<ellipse fill="none" stroke="black" cx="150" cy="-594" rx="27" ry="18"/>
<text text-anchor="middle" x="150" y="-590.3" font-family="Times,serif" font-size="14.00">25</text>
</g>
<!-- 22&#45;&gt;25 -->
<g id="edge30" class="edge">
<title>22&#45;&gt;25</title>
<path fill="none" stroke="black" d="M150,-637.67C150,-632.69 150,-627.49 150,-622.51"/>
<polygon fill="black" stroke="black" points="146.5,-637.7 150,-647.7 153.5,-637.7 146.5,-637.7"/>
<polygon fill="black" stroke="black" points="153.5,-622.1 150,-612.1 146.5,-622.1 153.5,-622.1"/>
</g>
<!-- 26 -->
<g id="node26" class="node">
<title>26</title>
<ellipse fill="none" stroke="black" cx="222" cy="-594" rx="27" ry="18"/>
<text text-anchor="middle" x="222" y="-590.3" font-family="Times,serif" font-size="14.00">26</text>
</g>
<!-- 22&#45;&gt;26 -->
<g id="edge31" class="edge">
<title>22&#45;&gt;26</title>
<path fill="none" stroke="black" d="M172.04,-643.57C180.87,-634.99 191.01,-625.13 199.85,-616.54"/>
<polygon fill="black" stroke="black" points="169.3,-641.35 164.57,-650.83 174.18,-646.37 169.3,-641.35"/>
<polygon fill="black" stroke="black" points="202.47,-618.87 207.2,-609.38 197.59,-613.85 202.47,-618.87"/>
</g>
<!-- 24 -->
<g id="node24" class="node">
<title>24</title>
<ellipse fill="none" stroke="black" cx="78" cy="-522" rx="27" ry="18"/>
<text text-anchor="middle" x="78" y="-518.3" font-family="Times,serif" font-size="14.00">24</text>
</g>
<!-- 23&#45;&gt;24 -->
<g id="edge32" class="edge">
<title>23&#45;&gt;24</title>
<path fill="none" stroke="black" d="M78,-565.67C78,-560.69 78,-555.49 78,-550.51"/>
<polygon fill="black" stroke="black" points="74.5,-565.7 78,-575.7 81.5,-565.7 74.5,-565.7"/>
<polygon fill="black" stroke="black" points="81.5,-550.1 78,-540.1 74.5,-550.1 81.5,-550.1"/>
</g>
<!-- 27 -->
<g id="node27" class="node">
<title>27</title>
<ellipse fill="none" stroke="black" cx="222" cy="-522" rx="27" ry="18"/>
<text text-anchor="middle" x="222" y="-518.3" font-family="Times,serif" font-size="14.00">27</text>
</g>
<!-- 26&#45;&gt;27 -->
<g id="edge33" class="edge">
<title>26&#45;&gt;27</title>
<path fill="none" stroke="black" d="M222,-565.67C222,-560.69 222,-555.49 222,-550.51"/>
<polygon fill="black" stroke="black" points="218.5,-565.7 222,-575.7 225.5,-565.7 218.5,-565.7"/>
<polygon fill="black" stroke="black" points="225.5,-550.1 222,-540.1 218.5,-550.1 225.5,-550.1"/>
</g>
<!-- 28 -->
<g id="node28" class="node">
<title>28</title>
<ellipse fill="none" stroke="black" cx="150" cy="-450" rx="27" ry="18"/>
<text text-anchor="middle" x="150" y="-446.3" font-family="Times,serif" font-size="14.00">28</text>
</g>
<!-- 27&#45;&gt;28 -->
<g id="edge34" class="edge">
<title>27&#45;&gt;28</title>
<path fill="none" stroke="black" d="M199.96,-499.57C191.13,-490.99 180.99,-481.13 172.15,-472.54"/>
<polygon fill="black" stroke="black" points="197.82,-502.37 207.43,-506.83 202.7,-497.35 197.82,-502.37"/>
<polygon fill="black" stroke="black" points="174.41,-469.85 164.8,-465.38 169.53,-474.87 174.41,-469.85"/>
</g>
<!-- 29 -->
<g id="node29" class="node">
<title>29</title>
<ellipse fill="none" stroke="black" cx="222" cy="-450" rx="27" ry="18"/>
<text text-anchor="middle" x="222" y="-446.3" font-family="Times,serif" font-size="14.00">29</text>
</g>
<!-- 27&#45;&gt;29 -->
<g id="edge35" class="edge">
<title>27&#45;&gt;29</title>
<path fill="none" stroke="black" d="M222,-493.67C222,-488.69 222,-483.49 222,-478.51"/>
<polygon fill="black" stroke="black" points="218.5,-493.7 222,-503.7 225.5,-493.7 218.5,-493.7"/>
<polygon fill="black" stroke="black" points="225.5,-478.1 222,-468.1 218.5,-478.1 225.5,-478.1"/>
</g>
<!-- 30 -->
<g id="node30" class="node">
<title>30</title>
<ellipse fill="none" stroke="black" cx="242" cy="-378" rx="27" ry="18"/>
<text text-anchor="middle" x="242" y="-374.3" font-family="Times,serif" font-size="14.00">30</text>
</g>
<!-- 27&#45;&gt;30 -->
<g id="edge36" class="edge">
<title>27&#45;&gt;30</title>
<path fill="none" stroke="black" d="M242.07,-497.92C248.46,-489.15 254.71,-478.69 258,-468 264.39,-447.21 259.18,-422.85 253.05,-404.87"/>
<polygon fill="black" stroke="black" points="239.12,-496.02 235.75,-506.07 244.65,-500.31 239.12,-496.02"/>
<polygon fill="black" stroke="black" points="256.28,-403.51 249.51,-395.36 249.71,-405.95 256.28,-403.51"/>
</g>
<!-- 31 -->
<g id="node31" class="node">
<title>31</title>
<ellipse fill="none" stroke="black" cx="150" cy="-378" rx="27" ry="18"/>
<text text-anchor="middle" x="150" y="-374.3" font-family="Times,serif" font-size="14.00">31</text>
</g>
<!-- 28&#45;&gt;31 -->
<g id="edge37" class="edge">
<title>28&#45;&gt;31</title>
<path fill="none" stroke="black" d="M150,-421.67C150,-416.69 150,-411.49 150,-406.51"/>
<polygon fill="black" stroke="black" points="146.5,-421.7 150,-431.7 153.5,-421.7 146.5,-421.7"/>
<polygon fill="black" stroke="black" points="153.5,-406.1 150,-396.1 146.5,-406.1 153.5,-406.1"/>
</g>
<!-- 29&#45;&gt;30 -->
<g id="edge38" class="edge">
<title>29&#45;&gt;30</title>
<path fill="none" stroke="black" d="M229.59,-422.43C231.15,-416.98 232.79,-411.24 234.35,-405.78"/>
<polygon fill="black" stroke="black" points="226.22,-421.48 226.84,-432.05 232.95,-423.4 226.22,-421.48"/>
<polygon fill="black" stroke="black" points="237.82,-406.37 237.2,-395.79 231.09,-404.44 237.82,-406.37"/>
</g>
<!-- 32 -->
<g id="node32" class="node">
<title>32</title>
<ellipse fill="none" stroke="black" cx="150" cy="-306" rx="27" ry="18"/>
<text text-anchor="middle" x="150" y="-302.3" font-family="Times,serif" font-size="14.00">32</text>
</g>
<!-- 31&#45;&gt;32 -->
<g id="edge39" class="edge">
<title>31&#45;&gt;32</title>
<path fill="none" stroke="black" d="M150,-349.67C150,-344.69 150,-339.49 150,-334.51"/>
<polygon fill="black" stroke="black" points="146.5,-349.7 150,-359.7 153.5,-349.7 146.5,-349.7"/>
<polygon fill="black" stroke="black" points="153.5,-334.1 150,-324.1 146.5,-334.1 153.5,-334.1"/>
</g>
<!-- 33 -->
<g id="node33" class="node">
<title>33</title>
<ellipse fill="none" stroke="black" cx="27" cy="-234" rx="27" ry="18"/>
<text text-anchor="middle" x="27" y="-230.3" font-family="Times,serif" font-size="14.00">33</text>
</g>
<!-- 32&#45;&gt;33 -->
<g id="edge40" class="edge">
<title>32&#45;&gt;33</title>
<path fill="none" stroke="black" d="M121.08,-288.54C101.41,-277.35 75.49,-262.6 55.84,-251.41"/>
<polygon fill="black" stroke="black" points="119.54,-291.69 129.96,-293.6 123,-285.61 119.54,-291.69"/>
<polygon fill="black" stroke="black" points="57.45,-248.3 47.03,-246.4 53.99,-254.39 57.45,-248.3"/>
</g>
<!-- 34 -->
<g id="node34" class="node">
<title>34</title>
<ellipse fill="none" stroke="black" cx="99" cy="-234" rx="27" ry="18"/>
<text text-anchor="middle" x="99" y="-230.3" font-family="Times,serif" font-size="14.00">34</text>
</g>
<!-- 32&#45;&gt;34 -->
<g id="edge41" class="edge">
<title>32&#45;&gt;34</title>
<path fill="none" stroke="black" d="M132.76,-281.34C127.43,-274.02 121.56,-265.97 116.23,-258.65"/>
<polygon fill="black" stroke="black" points="129.96,-283.44 138.68,-289.46 135.62,-279.32 129.96,-283.44"/>
<polygon fill="black" stroke="black" points="119,-256.51 110.29,-250.49 113.35,-260.64 119,-256.51"/>
</g>
<!-- 35 -->
<g id="node35" class="node">
<title>35</title>
<ellipse fill="none" stroke="black" cx="171" cy="-234" rx="27" ry="18"/>
<text text-anchor="middle" x="171" y="-230.3" font-family="Times,serif" font-size="14.00">35</text>
</g>
<!-- 32&#45;&gt;35 -->
<g id="edge42" class="edge">
<title>32&#45;&gt;35</title>
<path fill="none" stroke="black" d="M157.97,-278.43C159.61,-272.98 161.33,-267.24 162.97,-261.78"/>
<polygon fill="black" stroke="black" points="154.6,-277.47 155.08,-288.05 161.31,-279.48 154.6,-277.47"/>
<polygon fill="black" stroke="black" points="166.44,-262.37 165.96,-251.79 159.74,-260.36 166.44,-262.37"/>
</g>
<!-- start -->
<g id="node48" class="node">
<title>start</title>
<ellipse fill="none" stroke="black" cx="249" cy="-234" rx="33.29" ry="18"/>
<text text-anchor="middle" x="249" y="-230.3" font-family="Times,serif" font-size="14.00">start</text>
</g>
<!-- 32&#45;&gt;start -->
<g id="edge43" class="edge">
<title>32&#45;&gt;start</title>
<path fill="none" stroke="black" d="M176.44,-286.31C190.29,-276.51 207.26,-264.52 221.29,-254.59"/>
<polygon fill="black" stroke="black" points="174.3,-283.53 168.16,-292.16 178.34,-289.25 174.3,-283.53"/>
<polygon fill="black" stroke="black" points="223.46,-257.35 229.6,-248.71 219.42,-251.63 223.46,-257.35"/>
</g>
<!-- 36 -->
<g id="node36" class="node">
<title>36</title>
<ellipse fill="none" stroke="black" cx="171" cy="-162" rx="27" ry="18"/>
<text text-anchor="middle" x="171" y="-158.3" font-family="Times,serif" font-size="14.00">36</text>
</g>
<!-- 35&#45;&gt;36 -->
<g id="edge44" class="edge">
<title>35&#45;&gt;36</title>
<path fill="none" stroke="black" d="M171,-205.67C171,-200.69 171,-195.49 171,-190.51"/>
<polygon fill="black" stroke="black" points="167.5,-205.7 171,-215.7 174.5,-205.7 167.5,-205.7"/>
<polygon fill="black" stroke="black" points="174.5,-190.1 171,-180.1 167.5,-190.1 174.5,-190.1"/>
</g>
<!-- 43 -->
<g id="node43" class="node">
<title>43</title>
<ellipse fill="none" stroke="black" cx="226" cy="-90" rx="27" ry="18"/>
<text text-anchor="middle" x="226" y="-86.3" font-family="Times,serif" font-size="14.00">43</text>
</g>
<!-- 36&#45;&gt;43 -->
<g id="edge45" class="edge">
<title>36&#45;&gt;43</title>
<path fill="none" stroke="black" d="M189.17,-137.87C195.19,-130.21 201.88,-121.69 207.9,-114.04"/>
<polygon fill="black" stroke="black" points="186.36,-135.79 182.93,-145.81 191.86,-140.11 186.36,-135.79"/>
<polygon fill="black" stroke="black" points="210.66,-116.18 214.09,-106.16 205.16,-111.86 210.66,-116.18"/>
</g>
<!-- 47 -->
<g id="node47" class="node">
<title>47</title>
<ellipse fill="none" stroke="black" cx="289" cy="-18" rx="27" ry="18"/>
<text text-anchor="middle" x="289" y="-14.3" font-family="Times,serif" font-size="14.00">47</text>
</g>
<!-- 36&#45;&gt;47 -->
<g id="edge46" class="edge">
<title>36&#45;&gt;47</title>
<path fill="none" stroke="black" d="M170.97,-133.73C172.25,-114.73 176.68,-89.71 190,-72 205.95,-50.79 232.94,-37.15 254.71,-29.02"/>
<polygon fill="black" stroke="black" points="167.47,-133.72 170.54,-143.85 174.46,-134.01 167.47,-133.72"/>
<polygon fill="black" stroke="black" points="256,-32.28 264.29,-25.67 253.69,-25.67 256,-32.28"/>
</g>
<!-- 38 -->
<g id="node38" class="node">
<title>38</title>
<ellipse fill="none" stroke="black" cx="320" cy="-1026" rx="27" ry="18"/>
<text text-anchor="middle" x="320" y="-1022.3" font-family="Times,serif" font-size="14.00">38</text>
</g>
<!-- 37&#45;&gt;38 -->
<g id="edge47" class="edge">
<title>37&#45;&gt;38</title>
<path fill="none" stroke="black" d="M283.17,-1073.87C289.19,-1066.21 295.88,-1057.69 301.9,-1050.04"/>
<polygon fill="black" stroke="black" points="280.36,-1071.79 276.93,-1081.81 285.86,-1076.11 280.36,-1071.79"/>
<polygon fill="black" stroke="black" points="304.66,-1052.18 308.09,-1042.16 299.16,-1047.86 304.66,-1052.18"/>
</g>
<!-- 39 -->
<g id="node39" class="node">
<title>39</title>
<ellipse fill="none" stroke="black" cx="265" cy="-954" rx="27" ry="18"/>
<text text-anchor="middle" x="265" y="-950.3" font-family="Times,serif" font-size="14.00">39</text>
</g>
<!-- 37&#45;&gt;39 -->
<g id="edge48" class="edge">
<title>37&#45;&gt;39</title>
<path fill="none" stroke="black" d="M265,-1069.68C265,-1044.6 265,-1007.63 265,-982.49"/>
<polygon fill="black" stroke="black" points="261.5,-1069.87 265,-1079.87 268.5,-1069.87 261.5,-1069.87"/>
<polygon fill="black" stroke="black" points="268.5,-982.19 265,-972.19 261.5,-982.19 268.5,-982.19"/>
</g>
<!-- 38&#45;&gt;39 -->
<g id="edge49" class="edge">
<title>38&#45;&gt;39</title>
<path fill="none" stroke="black" d="M301.83,-1001.87C295.81,-994.21 289.12,-985.69 283.1,-978.04"/>
<polygon fill="black" stroke="black" points="299.14,-1004.11 308.07,-1009.81 304.64,-999.79 299.14,-1004.11"/>
<polygon fill="black" stroke="black" points="285.84,-975.86 276.91,-970.16 280.34,-980.18 285.84,-975.86"/>
</g>
<!-- 40 -->
<g id="node40" class="node">
<title>40</title>
<ellipse fill="none" stroke="black" cx="320" cy="-882" rx="27" ry="18"/>
<text text-anchor="middle" x="320" y="-878.3" font-family="Times,serif" font-size="14.00">40</text>
</g>
<!-- 38&#45;&gt;40 -->
<g id="edge50" class="edge">
<title>38&#45;&gt;40</title>
<path fill="none" stroke="black" d="M320,-997.68C320,-972.6 320,-935.63 320,-910.49"/>
<polygon fill="black" stroke="black" points="316.5,-997.87 320,-1007.87 323.5,-997.87 316.5,-997.87"/>
<polygon fill="black" stroke="black" points="323.5,-910.19 320,-900.19 316.5,-910.19 323.5,-910.19"/>
</g>
<!-- 42 -->
<g id="node42" class="node">
<title>42</title>
<ellipse fill="none" stroke="black" cx="364" cy="-234" rx="27" ry="18"/>
<text text-anchor="middle" x="364" y="-230.3" font-family="Times,serif" font-size="14.00">42</text>
</g>
<!-- 40&#45;&gt;42 -->
<g id="edge51" class="edge">
<title>40&#45;&gt;42</title>
<path fill="none" stroke="black" d="M320,-853.92C320,-825.35 320,-779 320,-739 320,-739 320,-739 320,-377 320,-336.55 326.06,-326.32 339,-288 342.12,-278.76 346.41,-269 350.56,-260.41"/>
<polygon fill="black" stroke="black" points="316.5,-853.95 320,-863.95 323.5,-853.95 316.5,-853.95"/>
<polygon fill="black" stroke="black" points="353.77,-261.81 355.11,-251.3 347.51,-258.68 353.77,-261.81"/>
</g>
<!-- 41 -->
<g id="node41" class="node">
<title>41</title>
<ellipse fill="none" stroke="black" cx="375" cy="-306" rx="27" ry="18"/>
<text text-anchor="middle" x="375" y="-302.3" font-family="Times,serif" font-size="14.00">41</text>
</g>
<!-- 41&#45;&gt;42 -->
<g id="edge52" class="edge">
<title>41&#45;&gt;42</title>
<path fill="none" stroke="black" d="M370.76,-278.01C369.95,-272.87 369.11,-267.5 368.3,-262.36"/>
<polygon fill="black" stroke="black" points="367.33,-278.72 372.34,-288.05 374.24,-277.63 367.33,-278.72"/>
<polygon fill="black" stroke="black" points="371.72,-261.61 366.71,-252.28 364.81,-262.7 371.72,-261.61"/>
</g>
<!-- 42&#45;&gt;43 -->
<g id="edge53" class="edge">
<title>42&#45;&gt;43</title>
<path fill="none" stroke="black" d="M328.16,-226.18C301.29,-219.18 265.71,-205.55 245,-180 230.96,-162.68 226.63,-137.42 225.56,-118.23"/>
<polygon fill="black" stroke="black" points="327.45,-229.61 337.99,-228.55 329.09,-222.8 327.45,-229.61"/>
<polygon fill="black" stroke="black" points="229.06,-117.9 225.27,-108.01 222.06,-118.11 229.06,-117.9"/>
</g>
<!-- 44 -->
<g id="node44" class="node">
<title>44</title>
<ellipse fill="none" stroke="black" cx="281" cy="-162" rx="27" ry="18"/>
<text text-anchor="middle" x="281" y="-158.3" font-family="Times,serif" font-size="14.00">44</text>
</g>
<!-- 42&#45;&gt;44 -->
<g id="edge54" class="edge">
<title>42&#45;&gt;44</title>
<path fill="none" stroke="black" d="M339.91,-212.69C328.94,-203.43 315.98,-192.5 305.01,-183.25"/>
<polygon fill="black" stroke="black" points="337.7,-215.4 347.6,-219.17 342.21,-210.05 337.7,-215.4"/>
<polygon fill="black" stroke="black" points="306.98,-180.33 297.08,-176.56 302.47,-185.69 306.98,-180.33"/>
</g>
<!-- 45 -->
<g id="node45" class="node">
<title>45</title>
<ellipse fill="none" stroke="black" cx="353" cy="-162" rx="27" ry="18"/>
<text text-anchor="middle" x="353" y="-158.3" font-family="Times,serif" font-size="14.00">45</text>
</g>
<!-- 42&#45;&gt;45 -->
<g id="edge55" class="edge">
<title>42&#45;&gt;45</title>
<path fill="none" stroke="black" d="M359.76,-206.01C358.95,-200.87 358.11,-195.5 357.3,-190.36"/>
<polygon fill="black" stroke="black" points="356.33,-206.72 361.34,-216.05 363.24,-205.63 356.33,-206.72"/>
<polygon fill="black" stroke="black" points="360.72,-189.61 355.71,-180.28 353.81,-190.7 360.72,-189.61"/>
</g>
<!-- 46 -->
<g id="node46" class="node">
<title>46</title>
<ellipse fill="none" stroke="black" cx="353" cy="-90" rx="27" ry="18"/>
<text text-anchor="middle" x="353" y="-86.3" font-family="Times,serif" font-size="14.00">46</text>
</g>
<!-- 42&#45;&gt;46 -->
<g id="edge56" class="edge">
<title>42&#45;&gt;46</title>
<path fill="none" stroke="black" d="M378.8,-207.99C387.5,-190.1 395.61,-165.49 389,-144 385.71,-133.31 379.46,-122.85 373.07,-114.08"/>
<polygon fill="black" stroke="black" points="375.53,-206.69 374,-217.18 381.74,-209.94 375.53,-206.69"/>
<polygon fill="black" stroke="black" points="375.65,-111.69 366.75,-105.93 370.12,-115.98 375.65,-111.69"/>
</g>
<!-- 42&#45;&gt;47 -->
<g id="edge57" class="edge">
<title>42&#45;&gt;47</title>
<path fill="none" stroke="black" d="M385.5,-211.19C392.86,-202.27 400.19,-191.38 404,-180 419.39,-134.05 418.11,-110.74 389,-72 372.93,-50.61 345.67,-36.98 323.66,-28.91"/>
<polygon fill="black" stroke="black" points="382.81,-208.96 378.84,-218.78 388.07,-213.57 382.81,-208.96"/>
<polygon fill="black" stroke="black" points="324.58,-25.52 313.98,-25.58 322.3,-32.14 324.58,-25.52"/>
</g>
<!-- goal -->
<g id="node49" class="node">
<title>goal</title>
<ellipse fill="none" stroke="black" cx="505" cy="-162" rx="30.59" ry="18"/>
<text text-anchor="middle" x="505" y="-158.3" font-family="Times,serif" font-size="14.00">goal</text>
</g>
<!-- 42&#45;&gt;goal -->
<g id="edge58" class="edge">
<title>42&#45;&gt;goal</title>
<path fill="none" stroke="black" d="M394.29,-217.96C417.51,-206.43 449.48,-190.56 473.1,-178.84"/>
<polygon fill="black" stroke="black" points="392.51,-214.94 385.11,-222.52 395.62,-221.21 392.51,-214.94"/>
<polygon fill="black" stroke="black" points="474.94,-181.83 482.34,-174.25 471.83,-175.56 474.94,-181.83"/>
</g>
<!-- 43&#45;&gt;47 -->
<g id="edge59" class="edge">
<title>43&#45;&gt;47</title>
<path fill="none" stroke="black" d="M246.33,-66.41C253.54,-58.4 261.64,-49.4 268.83,-41.41"/>
<polygon fill="black" stroke="black" points="243.45,-64.38 239.36,-74.15 248.65,-69.06 243.45,-64.38"/>
<polygon fill="black" stroke="black" points="271.57,-43.6 275.66,-33.82 266.37,-38.92 271.57,-43.6"/>
</g>
<!-- 45&#45;&gt;46 -->
<g id="edge60" class="edge">
<title>45&#45;&gt;46</title>
<path fill="none" stroke="black" d="M353,-133.67C353,-128.69 353,-123.49 353,-118.51"/>
<polygon fill="black" stroke="black" points="349.5,-133.7 353,-143.7 356.5,-133.7 349.5,-133.7"/>
<polygon fill="black" stroke="black" points="356.5,-118.1 353,-108.1 349.5,-118.1 356.5,-118.1"/>
</g>
<!-- 46&#45;&gt;47 -->
<g id="edge61" class="edge">
<title>46&#45;&gt;47</title>
<path fill="none" stroke="black" d="M332.64,-66.73C325.19,-58.58 316.77,-49.37 309.33,-41.23"/>
<polygon fill="black" stroke="black" points="330.1,-69.14 339.43,-74.15 335.26,-64.41 330.1,-69.14"/>
<polygon fill="black" stroke="black" points="311.88,-38.84 302.55,-33.82 306.72,-43.57 311.88,-38.84"/>
</g>
</g>
</svg>
