<?xml version="1.0" encoding="UTF-8" standalone="no"?>
<!DOCTYPE svg PUBLIC "-//W3C//DTD SVG 1.1//EN"
 "http://www.w3.org/Graphics/SVG/1.1/DTD/svg11.dtd">
<!-- Generated by graphviz version 2.43.0 (0)
 -->
<!-- Title: GCS region connectivity Pages: 1 -->
<svg width="424pt" height="2060pt"
 viewBox="0.00 0.00 424.22 2060.00" xmlns="http://www.w3.org/2000/svg" xmlns:xlink="http://www.w3.org/1999/xlink">
<g id="graph0" class="graph" transform="scale(1 1) rotate(0) translate(4 2056)">
<title>GCS region connectivity</title>
<polygon fill="white" stroke="transparent" points="-4,4 -4,-2056 420.22,-2056 420.22,4 -4,4"/>
<!-- 1 -->
<g id="node1" class="node">
<title>1</title>
<ellipse fill="none" stroke="black" cx="224" cy="-2034" rx="27" ry="18"/>
<text text-anchor="middle" x="224" y="-2030.3" font-family="Times,serif" font-size="14.00">1</text>
</g>
<!-- 2 -->
<g id="node2" class="node">
<title>2</title>
<ellipse fill="none" stroke="black" cx="224" cy="-1962" rx="27" ry="18"/>
<text text-anchor="middle" x="224" y="-1958.3" font-family="Times,serif" font-size="14.00">2</text>
</g>
<!-- 1&#45;&gt;2 -->
<g id="edge1" class="edge">
<title>1&#45;&gt;2</title>
<path fill="none" stroke="black" d="M224,-2005.67C224,-2000.69 224,-1995.49 224,-1990.51"/>
<polygon fill="black" stroke="black" points="220.5,-2005.7 224,-2015.7 227.5,-2005.7 220.5,-2005.7"/>
<polygon fill="black" stroke="black" points="227.5,-1990.1 224,-1980.1 220.5,-1990.1 227.5,-1990.1"/>
</g>
<!-- 3 -->
<g id="node3" class="node">
<title>3</title>
<ellipse fill="none" stroke="black" cx="224" cy="-1890" rx="27" ry="18"/>
<text text-anchor="middle" x="224" y="-1886.3" font-family="Times,serif" font-size="14.00">3</text>
</g>
<!-- 2&#45;&gt;3 -->
<g id="edge2" class="edge">
<title>2&#45;&gt;3</title>
<path fill="none" stroke="black" d="M224,-1933.67C224,-1928.69 224,-1923.49 224,-1918.51"/>
<polygon fill="black" stroke="black" points="220.5,-1933.7 224,-1943.7 227.5,-1933.7 220.5,-1933.7"/>
<polygon fill="black" stroke="black" points="227.5,-1918.1 224,-1908.1 220.5,-1918.1 227.5,-1918.1"/>
</g>
<!-- 4 -->
<g id="node4" class="node">
<title>4</title>
<ellipse fill="none" stroke="black" cx="224" cy="-1818" rx="27" ry="18"/>
<text text-anchor="middle" x="224" y="-1814.3" font-family="Times,serif" font-size="14.00">4</text>
</g>
<!-- 3&#45;&gt;4 -->
<g id="edge3" class="edge">
<title>3&#45;&gt;4</title>
<path fill="none" stroke="black" d="M224,-1861.67C224,-1856.69 224,-1851.49 224,-1846.51"/>
<polygon fill="black" stroke="black" points="220.5,-1861.7 224,-1871.7 227.5,-1861.7 220.5,-1861.7"/>
<polygon fill="black" stroke="black" points="227.5,-1846.1 224,-1836.1 220.5,-1846.1 227.5,-1846.1"/>
</g>
<!-- 5 -->
<g id="node5" class="node">
<title>5</title>
<ellipse fill="none" stroke="black" cx="197" cy="-1746" rx="27" ry="18"/>
<text text-anchor="middle" x="197" y="-1742.3" font-family="Times,serif" font-size="14.00">5</text>
</g>
<!-- 4&#45;&gt;5 -->
<g id="edge4" class="edge">
<title>4&#45;&gt;5</title>
<path fill="none" stroke="black" d="M213.99,-1791.06C211.76,-1785.26 209.38,-1779.1 207.14,-1773.29"/>
<polygon fill="black" stroke="black" points="210.74,-1792.34 217.6,-1800.41 217.27,-1789.82 210.74,-1792.34"/>
<polygon fill="black" stroke="black" points="210.4,-1772.03 203.54,-1763.96 203.87,-1774.55 210.4,-1772.03"/>
</g>
<!-- 6 -->
<g id="node6" class="node">
<title>6</title>
<ellipse fill="none" stroke="black" cx="224" cy="-1674" rx="27" ry="18"/>
<text text-anchor="middle" x="224" y="-1670.3" font-family="Times,serif" font-size="14.00">6</text>
</g>
<!-- 4&#45;&gt;6 -->
<g id="edge5" class="edge">
<title>4&#45;&gt;6</title>
<path fill="none" stroke="black" d="M229.49,-1789.99C230.93,-1781.69 232.28,-1772.5 233,-1764 234.34,-1748.06 234.34,-1743.94 233,-1728 232.28,-1719.5 230.93,-1710.31 229.49,-1702.01"/>
<polygon fill="black" stroke="black" points="226.03,-1789.44 227.65,-1799.91 232.91,-1790.71 226.03,-1789.44"/>
<polygon fill="black" stroke="black" points="232.91,-1701.29 227.65,-1692.09 226.03,-1702.56 232.91,-1701.29"/>
</g>
<!-- 5&#45;&gt;6 -->
<g id="edge6" class="edge">
<title>5&#45;&gt;6</title>
<path fill="none" stroke="black" d="M207.01,-1719.06C209.24,-1713.26 211.62,-1707.1 213.86,-1701.29"/>
<polygon fill="black" stroke="black" points="203.73,-1717.82 203.4,-1728.41 210.26,-1720.34 203.73,-1717.82"/>
<polygon fill="black" stroke="black" points="217.13,-1702.55 217.46,-1691.96 210.6,-1700.03 217.13,-1702.55"/>
</g>
<!-- 7 -->
<g id="node7" class="node">
<title>7</title>
<ellipse fill="none" stroke="black" cx="224" cy="-1602" rx="27" ry="18"/>
<text text-anchor="middle" x="224" y="-1598.3" font-family="Times,serif" font-size="14.00">7</text>
</g>
<!-- 6&#45;&gt;7 -->
<g id="edge7" class="edge">
<title>6&#45;&gt;7</title>
<path fill="none" stroke="black" d="M224,-1645.67C224,-1640.69 224,-1635.49 224,-1630.51"/>
<polygon fill="black" stroke="black" points="220.5,-1645.7 224,-1655.7 227.5,-1645.7 220.5,-1645.7"/>
<polygon fill="black" stroke="black" points="227.5,-1630.1 224,-1620.1 220.5,-1630.1 227.5,-1630.1"/>
</g>
<!-- 8 -->
<g id="node8" class="node">
<title>8</title>
<ellipse fill="none" stroke="black" cx="188" cy="-1530" rx="27" ry="18"/>
<text text-anchor="middle" x="188" y="-1526.3" font-family="Times,serif" font-size="14.00">8</text>
</g>
<!-- 7&#45;&gt;8 -->
<g id="edge8" class="edge">
<title>7&#45;&gt;8</title>
<path fill="none" stroke="black" d="M210.99,-1575.7C207.7,-1569.3 204.17,-1562.44 200.88,-1556.05"/>
<polygon fill="black" stroke="black" points="207.96,-1577.47 215.65,-1584.76 214.19,-1574.27 207.96,-1577.47"/>
<polygon fill="black" stroke="black" points="203.99,-1554.44 196.3,-1547.15 197.77,-1557.64 203.99,-1554.44"/>
</g>
<!-- 9 -->
<g id="node9" class="node">
<title>9</title>
<ellipse fill="none" stroke="black" cx="260" cy="-1530" rx="27" ry="18"/>
<text text-anchor="middle" x="260" y="-1526.3" font-family="Times,serif" font-size="14.00">9</text>
</g>
<!-- 7&#45;&gt;9 -->
<g id="edge9" class="edge">
<title>7&#45;&gt;9</title>
<path fill="none" stroke="black" d="M237.01,-1575.7C240.3,-1569.3 243.83,-1562.44 247.12,-1556.05"/>
<polygon fill="black" stroke="black" points="233.81,-1574.27 232.35,-1584.76 240.04,-1577.47 233.81,-1574.27"/>
<polygon fill="black" stroke="black" points="250.23,-1557.64 251.7,-1547.15 244.01,-1554.44 250.23,-1557.64"/>
</g>
<!-- 10 -->
<g id="node10" class="node">
<title>10</title>
<ellipse fill="none" stroke="black" cx="260" cy="-1458" rx="27" ry="18"/>
<text text-anchor="middle" x="260" y="-1454.3" font-family="Times,serif" font-size="14.00">10</text>
</g>
<!-- 9&#45;&gt;10 -->
<g id="edge10" class="edge">
<title>9&#45;&gt;10</title>
<path fill="none" stroke="black" d="M260,-1501.67C260,-1496.69 260,-1491.49 260,-1486.51"/>
<polygon fill="black" stroke="black" points="256.5,-1501.7 260,-1511.7 263.5,-1501.7 256.5,-1501.7"/>
<polygon fill="black" stroke="black" points="263.5,-1486.1 260,-1476.1 256.5,-1486.1 263.5,-1486.1"/>
</g>
<!-- 11 -->
<g id="node11" class="node">
<title>11</title>
<ellipse fill="none" stroke="black" cx="214" cy="-1386" rx="27" ry="18"/>
<text text-anchor="middle" x="214" y="-1382.3" font-family="Times,serif" font-size="14.00">11</text>
</g>
<!-- 9&#45;&gt;11 -->
<g id="edge11" class="edge">
<title>9&#45;&gt;11</title>
<path fill="none" stroke="black" d="M240.58,-1505.7C234.26,-1496.91 227.88,-1486.48 224,-1476 216.68,-1456.22 214.31,-1432.42 213.7,-1414.41"/>
<polygon fill="black" stroke="black" points="237.96,-1508.03 246.79,-1513.89 243.54,-1503.8 237.96,-1508.03"/>
<polygon fill="black" stroke="black" points="217.2,-1414.23 213.52,-1404.29 210.2,-1414.35 217.2,-1414.23"/>
</g>
<!-- 12 -->
<g id="node12" class="node">
<title>12</title>
<ellipse fill="none" stroke="black" cx="269" cy="-1314" rx="27" ry="18"/>
<text text-anchor="middle" x="269" y="-1310.3" font-family="Times,serif" font-size="14.00">12</text>
</g>
<!-- 9&#45;&gt;12 -->
<g id="edge12" class="edge">
<title>9&#45;&gt;12</title>
<path fill="none" stroke="black" d="M280.07,-1505.92C286.46,-1497.15 292.71,-1486.69 296,-1476 310.28,-1429.56 293.32,-1373.11 280.56,-1340.89"/>
<polygon fill="black" stroke="black" points="277.12,-1504.02 273.75,-1514.07 282.65,-1508.31 277.12,-1504.02"/>
<polygon fill="black" stroke="black" points="283.67,-1339.23 276.61,-1331.32 277.2,-1341.9 283.67,-1339.23"/>
</g>
<!-- 10&#45;&gt;11 -->
<g id="edge13" class="edge">
<title>10&#45;&gt;11</title>
<path fill="none" stroke="black" d="M243.91,-1432.51C239.46,-1425.74 234.62,-1418.39 230.17,-1411.6"/>
<polygon fill="black" stroke="black" points="241.15,-1434.68 249.56,-1441.12 247,-1430.84 241.15,-1434.68"/>
<polygon fill="black" stroke="black" points="232.81,-1409.26 224.4,-1402.82 226.96,-1413.1 232.81,-1409.26"/>
</g>
<!-- 10&#45;&gt;12 -->
<g id="edge14" class="edge">
<title>10&#45;&gt;12</title>
<path fill="none" stroke="black" d="M261.73,-1429.68C263.32,-1404.6 265.66,-1367.63 267.26,-1342.49"/>
<polygon fill="black" stroke="black" points="258.23,-1429.67 261.09,-1439.87 265.21,-1430.11 258.23,-1429.67"/>
<polygon fill="black" stroke="black" points="270.77,-1342.39 267.91,-1332.19 263.78,-1341.95 270.77,-1342.39"/>
</g>
<!-- 11&#45;&gt;12 -->
<g id="edge15" class="edge">
<title>11&#45;&gt;12</title>
<path fill="none" stroke="black" d="M232.17,-1361.87C238.19,-1354.21 244.88,-1345.69 250.9,-1338.04"/>
<polygon fill="black" stroke="black" points="229.36,-1359.79 225.93,-1369.81 234.86,-1364.11 229.36,-1359.79"/>
<polygon fill="black" stroke="black" points="253.66,-1340.18 257.09,-1330.16 248.16,-1335.86 253.66,-1340.18"/>
</g>
<!-- 13 -->
<g id="node13" class="node">
<title>13</title>
<ellipse fill="none" stroke="black" cx="269" cy="-1242" rx="27" ry="18"/>
<text text-anchor="middle" x="269" y="-1238.3" font-family="Times,serif" font-size="14.00">13</text>
</g>
<!-- 12&#45;&gt;13 -->
<g id="edge16" class="edge">
<title>12&#45;&gt;13</title>
<path fill="none" stroke="black" d="M269,-1285.67C269,-1280.69 269,-1275.49 269,-1270.51"/>
<polygon fill="black" stroke="black" points="265.5,-1285.7 269,-1295.7 272.5,-1285.7 265.5,-1285.7"/>
<polygon fill="black" stroke="black" points="272.5,-1270.1 269,-1260.1 265.5,-1270.1 272.5,-1270.1"/>
</g>
<!-- 14 -->
<g id="node14" class="node">
<title>14</title>
<ellipse fill="none" stroke="black" cx="214" cy="-1170" rx="27" ry="18"/>
<text text-anchor="middle" x="214" y="-1166.3" font-family="Times,serif" font-size="14.00">14</text>
</g>
<!-- 13&#45;&gt;14 -->
<g id="edge17" class="edge">
<title>13&#45;&gt;14</title>
<path fill="none" stroke="black" d="M250.83,-1217.87C244.81,-1210.21 238.12,-1201.69 232.1,-1194.04"/>
<polygon fill="black" stroke="black" points="248.14,-1220.11 257.07,-1225.81 253.64,-1215.79 248.14,-1220.11"/>
<polygon fill="black" stroke="black" points="234.84,-1191.86 225.91,-1186.16 229.34,-1196.18 234.84,-1191.86"/>
</g>
<!-- 37 -->
<g id="node37" class="node">
<title>37</title>
<ellipse fill="none" stroke="black" cx="269" cy="-1098" rx="27" ry="18"/>
<text text-anchor="middle" x="269" y="-1094.3" font-family="Times,serif" font-size="14.00">37</text>
</g>
<!-- 13&#45;&gt;37 -->
<g id="edge18" class="edge">
<title>13&#45;&gt;37</title>
<path fill="none" stroke="black" d="M269,-1213.68C269,-1188.6 269,-1151.63 269,-1126.49"/>
<polygon fill="black" stroke="black" points="265.5,-1213.87 269,-1223.87 272.5,-1213.87 265.5,-1213.87"/>
<polygon fill="black" stroke="black" points="272.5,-1126.19 269,-1116.19 265.5,-1126.19 272.5,-1126.19"/>
</g>
<!-- goal -->
<g id="node49" class="node">
<title>goal</title>
<ellipse fill="none" stroke="black" cx="328" cy="-1170" rx="30.59" ry="18"/>
<text text-anchor="middle" x="328" y="-1166.3" font-family="Times,serif" font-size="14.00">goal</text>
</g>
<!-- 13&#45;&gt;goal -->
<g id="edge19" class="edge">
<title>13&#45;&gt;goal</title>
<path fill="none" stroke="black" d="M288.4,-1217.99C294.76,-1210.44 301.83,-1202.05 308.22,-1194.47"/>
<polygon fill="black" stroke="black" points="285.57,-1215.91 281.8,-1225.81 290.92,-1220.42 285.57,-1215.91"/>
<polygon fill="black" stroke="black" points="311.05,-1196.55 314.81,-1186.64 305.69,-1192.03 311.05,-1196.55"/>
</g>
<!-- 15 -->
<g id="node15" class="node">
<title>15</title>
<ellipse fill="none" stroke="black" cx="174" cy="-1098" rx="27" ry="18"/>
<text text-anchor="middle" x="174" y="-1094.3" font-family="Times,serif" font-size="14.00">15</text>
</g>
<!-- 14&#45;&gt;15 -->
<g id="edge20" class="edge">
<title>14&#45;&gt;15</title>
<path fill="none" stroke="black" d="M199.71,-1144C196.03,-1137.55 192.06,-1130.6 188.37,-1124.15"/>
<polygon fill="black" stroke="black" points="196.72,-1145.82 204.72,-1152.76 202.8,-1142.35 196.72,-1145.82"/>
<polygon fill="black" stroke="black" points="191.23,-1122.09 183.23,-1115.15 185.15,-1125.57 191.23,-1122.09"/>
</g>
<!-- 14&#45;&gt;37 -->
<g id="edge21" class="edge">
<title>14&#45;&gt;37</title>
<path fill="none" stroke="black" d="M232.17,-1145.87C238.19,-1138.21 244.88,-1129.69 250.9,-1122.04"/>
<polygon fill="black" stroke="black" points="229.36,-1143.79 225.93,-1153.81 234.86,-1148.11 229.36,-1143.79"/>
<polygon fill="black" stroke="black" points="253.66,-1124.18 257.09,-1114.16 248.16,-1119.86 253.66,-1124.18"/>
</g>
<!-- 16 -->
<g id="node16" class="node">
<title>16</title>
<ellipse fill="none" stroke="black" cx="102" cy="-1026" rx="27" ry="18"/>
<text text-anchor="middle" x="102" y="-1022.3" font-family="Times,serif" font-size="14.00">16</text>
</g>
<!-- 15&#45;&gt;16 -->
<g id="edge22" class="edge">
<title>15&#45;&gt;16</title>
<path fill="none" stroke="black" d="M151.96,-1075.57C143.13,-1066.99 132.99,-1057.13 124.15,-1048.54"/>
<polygon fill="black" stroke="black" points="149.82,-1078.37 159.43,-1082.83 154.7,-1073.35 149.82,-1078.37"/>
<polygon fill="black" stroke="black" points="126.41,-1045.85 116.8,-1041.38 121.53,-1050.87 126.41,-1045.85"/>
</g>
<!-- 17 -->
<g id="node17" class="node">
<title>17</title>
<ellipse fill="none" stroke="black" cx="174" cy="-1026" rx="27" ry="18"/>
<text text-anchor="middle" x="174" y="-1022.3" font-family="Times,serif" font-size="14.00">17</text>
</g>
<!-- 15&#45;&gt;17 -->
<g id="edge23" class="edge">
<title>15&#45;&gt;17</title>
<path fill="none" stroke="black" d="M174,-1069.67C174,-1064.69 174,-1059.49 174,-1054.51"/>
<polygon fill="black" stroke="black" points="170.5,-1069.7 174,-1079.7 177.5,-1069.7 170.5,-1069.7"/>
<polygon fill="black" stroke="black" points="177.5,-1054.1 174,-1044.1 170.5,-1054.1 177.5,-1054.1"/>
</g>
<!-- 18 -->
<g id="node18" class="node">
<title>18</title>
<ellipse fill="none" stroke="black" cx="168" cy="-954" rx="27" ry="18"/>
<text text-anchor="middle" x="168" y="-950.3" font-family="Times,serif" font-size="14.00">18</text>
</g>
<!-- 17&#45;&gt;18 -->
<g id="edge24" class="edge">
<title>17&#45;&gt;18</title>
<path fill="none" stroke="black" d="M171.66,-997.67C171.22,-992.55 170.76,-987.21 170.32,-982.1"/>
<polygon fill="black" stroke="black" points="168.18,-998.03 172.52,-1007.7 175.15,-997.43 168.18,-998.03"/>
<polygon fill="black" stroke="black" points="173.81,-981.77 169.47,-972.1 166.83,-982.37 173.81,-981.77"/>
</g>
<!-- 19 -->
<g id="node19" class="node">
<title>19</title>
<ellipse fill="none" stroke="black" cx="164" cy="-882" rx="27" ry="18"/>
<text text-anchor="middle" x="164" y="-878.3" font-family="Times,serif" font-size="14.00">19</text>
</g>
<!-- 18&#45;&gt;19 -->
<g id="edge25" class="edge">
<title>18&#45;&gt;19</title>
<path fill="none" stroke="black" d="M166.44,-925.67C166.15,-920.55 165.84,-915.21 165.55,-910.1"/>
<polygon fill="black" stroke="black" points="162.95,-925.91 167.01,-935.7 169.93,-925.51 162.95,-925.91"/>
<polygon fill="black" stroke="black" points="169.04,-909.89 164.98,-900.1 162.05,-910.29 169.04,-909.89"/>
</g>
<!-- 20 -->
<g id="node20" class="node">
<title>20</title>
<ellipse fill="none" stroke="black" cx="156" cy="-810" rx="27" ry="18"/>
<text text-anchor="middle" x="156" y="-806.3" font-family="Times,serif" font-size="14.00">20</text>
</g>
<!-- 19&#45;&gt;20 -->
<g id="edge26" class="edge">
<title>19&#45;&gt;20</title>
<path fill="none" stroke="black" d="M160.88,-853.67C160.29,-848.55 159.68,-843.21 159.1,-838.1"/>
<polygon fill="black" stroke="black" points="157.41,-854.16 162.02,-863.7 164.36,-853.36 157.41,-854.16"/>
<polygon fill="black" stroke="black" points="162.57,-837.64 157.95,-828.1 155.61,-838.44 162.57,-837.64"/>
</g>
<!-- 21 -->
<g id="node21" class="node">
<title>21</title>
<ellipse fill="none" stroke="black" cx="101" cy="-738" rx="27" ry="18"/>
<text text-anchor="middle" x="101" y="-734.3" font-family="Times,serif" font-size="14.00">21</text>
</g>
<!-- 20&#45;&gt;21 -->
<g id="edge27" class="edge">
<title>20&#45;&gt;21</title>
<path fill="none" stroke="black" d="M137.83,-785.87C131.81,-778.21 125.12,-769.69 119.1,-762.04"/>
<polygon fill="black" stroke="black" points="135.14,-788.11 144.07,-793.81 140.64,-783.79 135.14,-788.11"/>
<polygon fill="black" stroke="black" points="121.84,-759.86 112.91,-754.16 116.34,-764.18 121.84,-759.86"/>
</g>
<!-- 22 -->
<g id="node22" class="node">
<title>22</title>
<ellipse fill="none" stroke="black" cx="101" cy="-666" rx="27" ry="18"/>
<text text-anchor="middle" x="101" y="-662.3" font-family="Times,serif" font-size="14.00">22</text>
</g>
<!-- 20&#45;&gt;22 -->
<g id="edge28" class="edge">
<title>20&#45;&gt;22</title>
<path fill="none" stroke="black" d="M152.98,-781.87C150.3,-763.8 145.46,-739.83 137,-720 132.61,-709.72 126.12,-699.34 119.85,-690.53"/>
<polygon fill="black" stroke="black" points="149.54,-782.57 154.34,-792.01 156.48,-781.63 149.54,-782.57"/>
<polygon fill="black" stroke="black" points="122.52,-688.24 113.75,-682.3 116.89,-692.41 122.52,-688.24"/>
</g>
<!-- 21&#45;&gt;22 -->
<g id="edge29" class="edge">
<title>21&#45;&gt;22</title>
<path fill="none" stroke="black" d="M101,-709.67C101,-704.69 101,-699.49 101,-694.51"/>
<polygon fill="black" stroke="black" points="97.5,-709.7 101,-719.7 104.5,-709.7 97.5,-709.7"/>
<polygon fill="black" stroke="black" points="104.5,-694.1 101,-684.1 97.5,-694.1 104.5,-694.1"/>
</g>
<!-- 23 -->
<g id="node23" class="node">
<title>23</title>
<ellipse fill="none" stroke="black" cx="28" cy="-594" rx="27" ry="18"/>
<text text-anchor="middle" x="28" y="-590.3" font-family="Times,serif" font-size="14.00">23</text>
</g>
<!-- 22&#45;&gt;23 -->
<g id="edge30" class="edge">
<title>22&#45;&gt;23</title>
<path fill="none" stroke="black" d="M78.93,-643.84C69.78,-635.06 59.18,-624.9 50.03,-616.13"/>
<polygon fill="black" stroke="black" points="76.59,-646.44 86.23,-650.83 81.43,-641.39 76.59,-646.44"/>
<polygon fill="black" stroke="black" points="52.39,-613.54 42.75,-609.14 47.55,-618.59 52.39,-613.54"/>
</g>
<!-- 25 -->
<g id="node25" class="node">
<title>25</title>
<ellipse fill="none" stroke="black" cx="100" cy="-594" rx="27" ry="18"/>
<text text-anchor="middle" x="100" y="-590.3" font-family="Times,serif" font-size="14.00">25</text>
</g>
<!-- 22&#45;&gt;25 -->
<g id="edge31" class="edge">
<title>22&#45;&gt;25</title>
<path fill="none" stroke="black" d="M100.61,-637.67C100.54,-632.55 100.46,-627.21 100.39,-622.1"/>
<polygon fill="black" stroke="black" points="97.11,-637.75 100.75,-647.7 104.11,-637.65 97.11,-637.75"/>
<polygon fill="black" stroke="black" points="103.89,-622.05 100.24,-612.1 96.89,-622.15 103.89,-622.05"/>
</g>
<!-- 26 -->
<g id="node26" class="node">
<title>26</title>
<ellipse fill="none" stroke="black" cx="172" cy="-594" rx="27" ry="18"/>
<text text-anchor="middle" x="172" y="-590.3" font-family="Times,serif" font-size="14.00">26</text>
</g>
<!-- 22&#45;&gt;26 -->
<g id="edge32" class="edge">
<title>22&#45;&gt;26</title>
<path fill="none" stroke="black" d="M123.03,-643.28C131.65,-634.78 141.52,-625.05 150.13,-616.56"/>
<polygon fill="black" stroke="black" points="120.38,-640.98 115.71,-650.5 125.29,-645.97 120.38,-640.98"/>
<polygon fill="black" stroke="black" points="152.64,-619 157.31,-609.49 147.73,-614.01 152.64,-619"/>
</g>
<!-- 24 -->
<g id="node24" class="node">
<title>24</title>
<ellipse fill="none" stroke="black" cx="28" cy="-522" rx="27" ry="18"/>
<text text-anchor="middle" x="28" y="-518.3" font-family="Times,serif" font-size="14.00">24</text>
</g>
<!-- 23&#45;&gt;24 -->
<g id="edge33" class="edge">
<title>23&#45;&gt;24</title>
<path fill="none" stroke="black" d="M28,-565.67C28,-560.69 28,-555.49 28,-550.51"/>
<polygon fill="black" stroke="black" points="24.5,-565.7 28,-575.7 31.5,-565.7 24.5,-565.7"/>
<polygon fill="black" stroke="black" points="31.5,-550.1 28,-540.1 24.5,-550.1 31.5,-550.1"/>
</g>
<!-- 27 -->
<g id="node27" class="node">
<title>27</title>
<ellipse fill="none" stroke="black" cx="171" cy="-522" rx="27" ry="18"/>
<text text-anchor="middle" x="171" y="-518.3" font-family="Times,serif" font-size="14.00">27</text>
</g>
<!-- 26&#45;&gt;27 -->
<g id="edge34" class="edge">
<title>26&#45;&gt;27</title>
<path fill="none" stroke="black" d="M171.61,-565.67C171.54,-560.55 171.46,-555.21 171.39,-550.1"/>
<polygon fill="black" stroke="black" points="168.11,-565.75 171.75,-575.7 175.11,-565.65 168.11,-565.75"/>
<polygon fill="black" stroke="black" points="174.89,-550.05 171.24,-540.1 167.89,-550.15 174.89,-550.05"/>
</g>
<!-- 28 -->
<g id="node28" class="node">
<title>28</title>
<ellipse fill="none" stroke="black" cx="99" cy="-450" rx="27" ry="18"/>
<text text-anchor="middle" x="99" y="-446.3" font-family="Times,serif" font-size="14.00">28</text>
</g>
<!-- 27&#45;&gt;28 -->
<g id="edge35" class="edge">
<title>27&#45;&gt;28</title>
<path fill="none" stroke="black" d="M148.96,-499.57C140.13,-490.99 129.99,-481.13 121.15,-472.54"/>
<polygon fill="black" stroke="black" points="146.82,-502.37 156.43,-506.83 151.7,-497.35 146.82,-502.37"/>
<polygon fill="black" stroke="black" points="123.41,-469.85 113.8,-465.38 118.53,-474.87 123.41,-469.85"/>
</g>
<!-- 29 -->
<g id="node29" class="node">
<title>29</title>
<ellipse fill="none" stroke="black" cx="171" cy="-450" rx="27" ry="18"/>
<text text-anchor="middle" x="171" y="-446.3" font-family="Times,serif" font-size="14.00">29</text>
</g>
<!-- 27&#45;&gt;29 -->
<g id="edge36" class="edge">
<title>27&#45;&gt;29</title>
<path fill="none" stroke="black" d="M171,-493.67C171,-488.69 171,-483.49 171,-478.51"/>
<polygon fill="black" stroke="black" points="167.5,-493.7 171,-503.7 174.5,-493.7 167.5,-493.7"/>
<polygon fill="black" stroke="black" points="174.5,-478.1 171,-468.1 167.5,-478.1 174.5,-478.1"/>
</g>
<!-- 30 -->
<g id="node30" class="node">
<title>30</title>
<ellipse fill="none" stroke="black" cx="199" cy="-378" rx="27" ry="18"/>
<text text-anchor="middle" x="199" y="-374.3" font-family="Times,serif" font-size="14.00">30</text>
</g>
<!-- 27&#45;&gt;30 -->
<g id="edge37" class="edge">
<title>27&#45;&gt;30</title>
<path fill="none" stroke="black" d="M191.07,-497.92C197.46,-489.15 203.71,-478.69 207,-468 213.25,-447.67 210.51,-423.59 206.62,-405.61"/>
<polygon fill="black" stroke="black" points="188.12,-496.02 184.75,-506.07 193.65,-500.31 188.12,-496.02"/>
<polygon fill="black" stroke="black" points="210,-404.7 204.25,-395.8 203.2,-406.34 210,-404.7"/>
</g>
<!-- 31 -->
<g id="node31" class="node">
<title>31</title>
<ellipse fill="none" stroke="black" cx="99" cy="-378" rx="27" ry="18"/>
<text text-anchor="middle" x="99" y="-374.3" font-family="Times,serif" font-size="14.00">31</text>
</g>
<!-- 28&#45;&gt;31 -->
<g id="edge38" class="edge">
<title>28&#45;&gt;31</title>
<path fill="none" stroke="black" d="M99,-421.67C99,-416.69 99,-411.49 99,-406.51"/>
<polygon fill="black" stroke="black" points="95.5,-421.7 99,-431.7 102.5,-421.7 95.5,-421.7"/>
<polygon fill="black" stroke="black" points="102.5,-406.1 99,-396.1 95.5,-406.1 102.5,-406.1"/>
</g>
<!-- 29&#45;&gt;30 -->
<g id="edge39" class="edge">
<title>29&#45;&gt;30</title>
<path fill="none" stroke="black" d="M181.44,-422.91C183.79,-417.02 186.29,-410.77 188.64,-404.89"/>
<polygon fill="black" stroke="black" points="178.1,-421.83 177.64,-432.41 184.6,-424.43 178.1,-421.83"/>
<polygon fill="black" stroke="black" points="191.95,-406.05 192.41,-395.47 185.45,-403.45 191.95,-406.05"/>
</g>
<!-- 32 -->
<g id="node32" class="node">
<title>32</title>
<ellipse fill="none" stroke="black" cx="99" cy="-306" rx="27" ry="18"/>
<text text-anchor="middle" x="99" y="-302.3" font-family="Times,serif" font-size="14.00">32</text>
</g>
<!-- 31&#45;&gt;32 -->
<g id="edge40" class="edge">
<title>31&#45;&gt;32</title>
<path fill="none" stroke="black" d="M99,-349.67C99,-344.69 99,-339.49 99,-334.51"/>
<polygon fill="black" stroke="black" points="95.5,-349.7 99,-359.7 102.5,-349.7 95.5,-349.7"/>
<polygon fill="black" stroke="black" points="102.5,-334.1 99,-324.1 95.5,-334.1 102.5,-334.1"/>
</g>
<!-- 33 -->
<g id="node33" class="node">
<title>33</title>
<ellipse fill="none" stroke="black" cx="27" cy="-234" rx="27" ry="18"/>
<text text-anchor="middle" x="27" y="-230.3" font-family="Times,serif" font-size="14.00">33</text>
</g>
<!-- 32&#45;&gt;33 -->
<g id="edge41" class="edge">
<title>32&#45;&gt;33</title>
<path fill="none" stroke="black" d="M76.96,-283.57C68.13,-274.99 57.99,-265.13 49.15,-256.54"/>
<polygon fill="black" stroke="black" points="74.82,-286.37 84.43,-290.83 79.7,-281.35 74.82,-286.37"/>
<polygon fill="black" stroke="black" points="51.41,-253.85 41.8,-249.38 46.53,-258.87 51.41,-253.85"/>
</g>
<!-- 34 -->
<g id="node34" class="node">
<title>34</title>
<ellipse fill="none" stroke="black" cx="99" cy="-234" rx="27" ry="18"/>
<text text-anchor="middle" x="99" y="-230.3" font-family="Times,serif" font-size="14.00">34</text>
</g>
<!-- 32&#45;&gt;34 -->
<g id="edge42" class="edge">
<title>32&#45;&gt;34</title>
<path fill="none" stroke="black" d="M99,-277.67C99,-272.69 99,-267.49 99,-262.51"/>
<polygon fill="black" stroke="black" points="95.5,-277.7 99,-287.7 102.5,-277.7 95.5,-277.7"/>
<polygon fill="black" stroke="black" points="102.5,-262.1 99,-252.1 95.5,-262.1 102.5,-262.1"/>
</g>
<!-- 35 -->
<g id="node35" class="node">
<title>35</title>
<ellipse fill="none" stroke="black" cx="171" cy="-234" rx="27" ry="18"/>
<text text-anchor="middle" x="171" y="-230.3" font-family="Times,serif" font-size="14.00">35</text>
</g>
<!-- 32&#45;&gt;35 -->
<g id="edge43" class="edge">
<title>32&#45;&gt;35</title>
<path fill="none" stroke="black" d="M121.04,-283.57C129.87,-274.99 140.01,-265.13 148.85,-256.54"/>
<polygon fill="black" stroke="black" points="118.3,-281.35 113.57,-290.83 123.18,-286.37 118.3,-281.35"/>
<polygon fill="black" stroke="black" points="151.47,-258.87 156.2,-249.38 146.59,-253.85 151.47,-258.87"/>
</g>
<!-- 36 -->
<g id="node36" class="node">
<title>36</title>
<ellipse fill="none" stroke="black" cx="171" cy="-162" rx="27" ry="18"/>
<text text-anchor="middle" x="171" y="-158.3" font-family="Times,serif" font-size="14.00">36</text>
</g>
<!-- 35&#45;&gt;36 -->
<g id="edge44" class="edge">
<title>35&#45;&gt;36</title>
<path fill="none" stroke="black" d="M171,-205.67C171,-200.69 171,-195.49 171,-190.51"/>
<polygon fill="black" stroke="black" points="167.5,-205.7 171,-215.7 174.5,-205.7 167.5,-205.7"/>
<polygon fill="black" stroke="black" points="174.5,-190.1 171,-180.1 167.5,-190.1 174.5,-190.1"/>
</g>
<!-- 43 -->
<g id="node43" class="node">
<title>43</title>
<ellipse fill="none" stroke="black" cx="226" cy="-90" rx="27" ry="18"/>
<text text-anchor="middle" x="226" y="-86.3" font-family="Times,serif" font-size="14.00">43</text>
</g>
<!-- 36&#45;&gt;43 -->
<g id="edge45" class="edge">
<title>36&#45;&gt;43</title>
<path fill="none" stroke="black" d="M189.17,-137.87C195.19,-130.21 201.88,-121.69 207.9,-114.04"/>
<polygon fill="black" stroke="black" points="186.36,-135.79 182.93,-145.81 191.86,-140.11 186.36,-135.79"/>
<polygon fill="black" stroke="black" points="210.66,-116.18 214.09,-106.16 205.16,-111.86 210.66,-116.18"/>
</g>
<!-- 47 -->
<g id="node47" class="node">
<title>47</title>
<ellipse fill="none" stroke="black" cx="289" cy="-18" rx="27" ry="18"/>
<text text-anchor="middle" x="289" y="-14.3" font-family="Times,serif" font-size="14.00">47</text>
</g>
<!-- 36&#45;&gt;47 -->
<g id="edge46" class="edge">
<title>36&#45;&gt;47</title>
<path fill="none" stroke="black" d="M170.97,-133.73C172.25,-114.73 176.68,-89.71 190,-72 205.95,-50.79 232.94,-37.15 254.71,-29.02"/>
<polygon fill="black" stroke="black" points="167.47,-133.72 170.54,-143.85 174.46,-134.01 167.47,-133.72"/>
<polygon fill="black" stroke="black" points="256,-32.28 264.29,-25.67 253.69,-25.67 256,-32.28"/>
</g>
<!-- 38 -->
<g id="node38" class="node">
<title>38</title>
<ellipse fill="none" stroke="black" cx="292" cy="-1026" rx="27" ry="18"/>
<text text-anchor="middle" x="292" y="-1022.3" font-family="Times,serif" font-size="14.00">38</text>
</g>
<!-- 37&#45;&gt;38 -->
<g id="edge47" class="edge">
<title>37&#45;&gt;38</title>
<path fill="none" stroke="black" d="M277.73,-1070.43C279.57,-1064.84 281.5,-1058.94 283.34,-1053.36"/>
<polygon fill="black" stroke="black" points="274.36,-1069.46 274.57,-1080.05 281.01,-1071.65 274.36,-1069.46"/>
<polygon fill="black" stroke="black" points="286.69,-1054.38 286.48,-1043.79 280.04,-1052.2 286.69,-1054.38"/>
</g>
<!-- 39 -->
<g id="node39" class="node">
<title>39</title>
<ellipse fill="none" stroke="black" cx="242" cy="-954" rx="27" ry="18"/>
<text text-anchor="middle" x="242" y="-950.3" font-family="Times,serif" font-size="14.00">39</text>
</g>
<!-- 37&#45;&gt;39 -->
<g id="edge48" class="edge">
<title>37&#45;&gt;39</title>
<path fill="none" stroke="black" d="M261.9,-1069.97C259.85,-1061.67 257.71,-1052.49 256,-1044 251.87,-1023.43 248.22,-999.97 245.69,-982.31"/>
<polygon fill="black" stroke="black" points="258.57,-1071.06 264.42,-1079.9 265.35,-1069.34 258.57,-1071.06"/>
<polygon fill="black" stroke="black" points="249.11,-981.55 244.26,-972.14 242.18,-982.53 249.11,-981.55"/>
</g>
<!-- start -->
<g id="node48" class="node">
<title>start</title>
<ellipse fill="none" stroke="black" cx="370" cy="-1026" rx="33.29" ry="18"/>
<text text-anchor="middle" x="370" y="-1022.3" font-family="Times,serif" font-size="14.00">start</text>
</g>
<!-- 37&#45;&gt;start -->
<g id="edge49" class="edge">
<title>37&#45;&gt;start</title>
<path fill="none" stroke="black" d="M295.55,-1078.6C309.79,-1068.73 327.33,-1056.57 341.81,-1046.54"/>
<polygon fill="black" stroke="black" points="293.28,-1075.91 287.06,-1084.49 297.27,-1081.67 293.28,-1075.91"/>
<polygon fill="black" stroke="black" points="344.15,-1049.17 350.37,-1040.6 340.16,-1043.42 344.15,-1049.17"/>
</g>
<!-- 38&#45;&gt;39 -->
<g id="edge50" class="edge">
<title>38&#45;&gt;39</title>
<path fill="none" stroke="black" d="M274.88,-1001.03C269.81,-993.93 264.25,-986.15 259.17,-979.04"/>
<polygon fill="black" stroke="black" points="272.24,-1003.36 280.9,-1009.46 277.94,-999.29 272.24,-1003.36"/>
<polygon fill="black" stroke="black" points="261.73,-976.59 253.07,-970.49 256.03,-980.66 261.73,-976.59"/>
</g>
<!-- 40 -->
<g id="node40" class="node">
<title>40</title>
<ellipse fill="none" stroke="black" cx="298" cy="-882" rx="27" ry="18"/>
<text text-anchor="middle" x="298" y="-878.3" font-family="Times,serif" font-size="14.00">40</text>
</g>
<!-- 38&#45;&gt;40 -->
<g id="edge51" class="edge">
<title>38&#45;&gt;40</title>
<path fill="none" stroke="black" d="M293.15,-997.68C294.21,-972.6 295.78,-935.63 296.84,-910.49"/>
<polygon fill="black" stroke="black" points="289.65,-997.73 292.72,-1007.87 296.64,-998.03 289.65,-997.73"/>
<polygon fill="black" stroke="black" points="300.35,-910.33 297.27,-900.19 293.35,-910.03 300.35,-910.33"/>
</g>
<!-- 42 -->
<g id="node42" class="node">
<title>42</title>
<ellipse fill="none" stroke="black" cx="353" cy="-234" rx="27" ry="18"/>
<text text-anchor="middle" x="353" y="-230.3" font-family="Times,serif" font-size="14.00">42</text>
</g>
<!-- 40&#45;&gt;42 -->
<g id="edge52" class="edge">
<title>40&#45;&gt;42</title>
<path fill="none" stroke="black" d="M298,-853.92C298,-825.35 298,-779 298,-739 298,-739 298,-739 298,-377 298,-336.55 301.12,-325.2 317,-288 321.39,-277.72 327.88,-267.34 334.15,-258.53"/>
<polygon fill="black" stroke="black" points="294.5,-853.95 298,-863.95 301.5,-853.95 294.5,-853.95"/>
<polygon fill="black" stroke="black" points="337.11,-260.41 340.25,-250.3 331.48,-256.24 337.11,-260.41"/>
</g>
<!-- 41 -->
<g id="node41" class="node">
<title>41</title>
<ellipse fill="none" stroke="black" cx="353" cy="-306" rx="27" ry="18"/>
<text text-anchor="middle" x="353" y="-302.3" font-family="Times,serif" font-size="14.00">41</text>
</g>
<!-- 41&#45;&gt;42 -->
<g id="edge53" class="edge">
<title>41&#45;&gt;42</title>
<path fill="none" stroke="black" d="M353,-277.67C353,-272.69 353,-267.49 353,-262.51"/>
<polygon fill="black" stroke="black" points="349.5,-277.7 353,-287.7 356.5,-277.7 349.5,-277.7"/>
<polygon fill="black" stroke="black" points="356.5,-262.1 353,-252.1 349.5,-262.1 356.5,-262.1"/>
</g>
<!-- 42&#45;&gt;43 -->
<g id="edge54" class="edge">
<title>42&#45;&gt;43</title>
<path fill="none" stroke="black" d="M317.65,-224.42C293.6,-216.75 262.98,-203.06 245,-180 231.37,-162.53 226.97,-137.49 225.78,-118.41"/>
<polygon fill="black" stroke="black" points="316.92,-227.85 327.5,-227.35 318.91,-221.14 316.92,-227.85"/>
<polygon fill="black" stroke="black" points="229.27,-118.11 225.41,-108.25 222.28,-118.37 229.27,-118.11"/>
</g>
<!-- 44 -->
<g id="node44" class="node">
<title>44</title>
<ellipse fill="none" stroke="black" cx="281" cy="-162" rx="27" ry="18"/>
<text text-anchor="middle" x="281" y="-158.3" font-family="Times,serif" font-size="14.00">44</text>
</g>
<!-- 42&#45;&gt;44 -->
<g id="edge55" class="edge">
<title>42&#45;&gt;44</title>
<path fill="none" stroke="black" d="M330.96,-211.57C322.13,-202.99 311.99,-193.13 303.15,-184.54"/>
<polygon fill="black" stroke="black" points="328.82,-214.37 338.43,-218.83 333.7,-209.35 328.82,-214.37"/>
<polygon fill="black" stroke="black" points="305.41,-181.85 295.8,-177.38 300.53,-186.87 305.41,-181.85"/>
</g>
<!-- 45 -->
<g id="node45" class="node">
<title>45</title>
<ellipse fill="none" stroke="black" cx="353" cy="-162" rx="27" ry="18"/>
<text text-anchor="middle" x="353" y="-158.3" font-family="Times,serif" font-size="14.00">45</text>
</g>
<!-- 42&#45;&gt;45 -->
<g id="edge56" class="edge">
<title>42&#45;&gt;45</title>
<path fill="none" stroke="black" d="M353,-205.67C353,-200.69 353,-195.49 353,-190.51"/>
<polygon fill="black" stroke="black" points="349.5,-205.7 353,-215.7 356.5,-205.7 349.5,-205.7"/>
<polygon fill="black" stroke="black" points="356.5,-190.1 353,-180.1 349.5,-190.1 356.5,-190.1"/>
</g>
<!-- 46 -->
<g id="node46" class="node">
<title>46</title>
<ellipse fill="none" stroke="black" cx="353" cy="-90" rx="27" ry="18"/>
<text text-anchor="middle" x="353" y="-86.3" font-family="Times,serif" font-size="14.00">46</text>
</g>
<!-- 42&#45;&gt;46 -->
<g id="edge57" class="edge">
<title>42&#45;&gt;46</title>
<path fill="none" stroke="black" d="M373.07,-209.92C379.46,-201.15 385.71,-190.69 389,-180 393.7,-164.71 393.7,-159.29 389,-144 385.71,-133.31 379.46,-122.85 373.07,-114.08"/>
<polygon fill="black" stroke="black" points="370.12,-208.02 366.75,-218.07 375.65,-212.31 370.12,-208.02"/>
<polygon fill="black" stroke="black" points="375.65,-111.69 366.75,-105.93 370.12,-115.98 375.65,-111.69"/>
</g>
<!-- 42&#45;&gt;47 -->
<g id="edge58" class="edge">
<title>42&#45;&gt;47</title>
<path fill="none" stroke="black" d="M379.09,-213.87C389.19,-204.86 399.61,-193.18 405,-180 423.36,-135.08 418.41,-110.6 389,-72 372.79,-50.72 345.54,-37.08 323.57,-28.98"/>
<polygon fill="black" stroke="black" points="376.58,-211.41 371.15,-220.51 381.07,-216.78 376.58,-211.41"/>
<polygon fill="black" stroke="black" points="324.51,-25.6 313.91,-25.64 322.22,-32.22 324.51,-25.6"/>
</g>
<!-- 43&#45;&gt;47 -->
<g id="edge59" class="edge">
<title>43&#45;&gt;47</title>
<path fill="none" stroke="black" d="M246.33,-66.41C253.54,-58.4 261.64,-49.4 268.83,-41.41"/>
<polygon fill="black" stroke="black" points="243.45,-64.38 239.36,-74.15 248.65,-69.06 243.45,-64.38"/>
<polygon fill="black" stroke="black" points="271.57,-43.6 275.66,-33.82 266.37,-38.92 271.57,-43.6"/>
</g>
<!-- 45&#45;&gt;46 -->
<g id="edge60" class="edge">
<title>45&#45;&gt;46</title>
<path fill="none" stroke="black" d="M353,-133.67C353,-128.69 353,-123.49 353,-118.51"/>
<polygon fill="black" stroke="black" points="349.5,-133.7 353,-143.7 356.5,-133.7 349.5,-133.7"/>
<polygon fill="black" stroke="black" points="356.5,-118.1 353,-108.1 349.5,-118.1 356.5,-118.1"/>
</g>
<!-- 46&#45;&gt;47 -->
<g id="edge61" class="edge">
<title>46&#45;&gt;47</title>
<path fill="none" stroke="black" d="M332.64,-66.73C325.19,-58.58 316.77,-49.37 309.33,-41.23"/>
<polygon fill="black" stroke="black" points="330.1,-69.14 339.43,-74.15 335.26,-64.41 330.1,-69.14"/>
<polygon fill="black" stroke="black" points="311.88,-38.84 302.55,-33.82 306.72,-43.57 311.88,-38.84"/>
</g>
</g>
</svg>
