<?xml version="1.0" encoding="UTF-8" standalone="no"?>
<!DOCTYPE svg PUBLIC "-//W3C//DTD SVG 1.1//EN"
 "http://www.w3.org/Graphics/SVG/1.1/DTD/svg11.dtd">
<!-- Generated by graphviz version 2.43.0 (0)
 -->
<!-- Title: GCS region connectivity Pages: 1 -->
<svg width="550pt" height="2060pt"
 viewBox="0.00 0.00 549.55 2060.00" xmlns="http://www.w3.org/2000/svg" xmlns:xlink="http://www.w3.org/1999/xlink">
<g id="graph0" class="graph" transform="scale(1 1) rotate(0) translate(4 2056)">
<title>GCS region connectivity</title>
<polygon fill="white" stroke="transparent" points="-4,4 -4,-2056 545.55,-2056 545.55,4 -4,4"/>
<!-- 1 -->
<g id="node1" class="node">
<title>1</title>
<ellipse fill="none" stroke="black" cx="174" cy="-2034" rx="27" ry="18"/>
<text text-anchor="middle" x="174" y="-2030.3" font-family="Times,serif" font-size="14.00">1</text>
</g>
<!-- 2 -->
<g id="node2" class="node">
<title>2</title>
<ellipse fill="none" stroke="black" cx="174" cy="-1962" rx="27" ry="18"/>
<text text-anchor="middle" x="174" y="-1958.3" font-family="Times,serif" font-size="14.00">2</text>
</g>
<!-- 1&#45;&gt;2 -->
<g id="edge1" class="edge">
<title>1&#45;&gt;2</title>
<path fill="none" stroke="black" d="M174,-2005.67C174,-2000.69 174,-1995.49 174,-1990.51"/>
<polygon fill="black" stroke="black" points="170.5,-2005.7 174,-2015.7 177.5,-2005.7 170.5,-2005.7"/>
<polygon fill="black" stroke="black" points="177.5,-1990.1 174,-1980.1 170.5,-1990.1 177.5,-1990.1"/>
</g>
<!-- 3 -->
<g id="node3" class="node">
<title>3</title>
<ellipse fill="none" stroke="black" cx="174" cy="-1890" rx="27" ry="18"/>
<text text-anchor="middle" x="174" y="-1886.3" font-family="Times,serif" font-size="14.00">3</text>
</g>
<!-- 2&#45;&gt;3 -->
<g id="edge2" class="edge">
<title>2&#45;&gt;3</title>
<path fill="none" stroke="black" d="M174,-1933.67C174,-1928.69 174,-1923.49 174,-1918.51"/>
<polygon fill="black" stroke="black" points="170.5,-1933.7 174,-1943.7 177.5,-1933.7 170.5,-1933.7"/>
<polygon fill="black" stroke="black" points="177.5,-1918.1 174,-1908.1 170.5,-1918.1 177.5,-1918.1"/>
</g>
<!-- 4 -->
<g id="node4" class="node">
<title>4</title>
<ellipse fill="none" stroke="black" cx="174" cy="-1818" rx="27" ry="18"/>
<text text-anchor="middle" x="174" y="-1814.3" font-family="Times,serif" font-size="14.00">4</text>
</g>
<!-- 3&#45;&gt;4 -->
<g id="edge3" class="edge">
<title>3&#45;&gt;4</title>
<path fill="none" stroke="black" d="M174,-1861.67C174,-1856.69 174,-1851.49 174,-1846.51"/>
<polygon fill="black" stroke="black" points="170.5,-1861.7 174,-1871.7 177.5,-1861.7 170.5,-1861.7"/>
<polygon fill="black" stroke="black" points="177.5,-1846.1 174,-1836.1 170.5,-1846.1 177.5,-1846.1"/>
</g>
<!-- 5 -->
<g id="node5" class="node">
<title>5</title>
<ellipse fill="none" stroke="black" cx="147" cy="-1746" rx="27" ry="18"/>
<text text-anchor="middle" x="147" y="-1742.3" font-family="Times,serif" font-size="14.00">5</text>
</g>
<!-- 4&#45;&gt;5 -->
<g id="edge4" class="edge">
<title>4&#45;&gt;5</title>
<path fill="none" stroke="black" d="M163.99,-1791.06C161.76,-1785.26 159.38,-1779.1 157.14,-1773.29"/>
<polygon fill="black" stroke="black" points="160.74,-1792.34 167.6,-1800.41 167.27,-1789.82 160.74,-1792.34"/>
<polygon fill="black" stroke="black" points="160.4,-1772.03 153.54,-1763.96 153.87,-1774.55 160.4,-1772.03"/>
</g>
<!-- 6 -->
<g id="node6" class="node">
<title>6</title>
<ellipse fill="none" stroke="black" cx="174" cy="-1674" rx="27" ry="18"/>
<text text-anchor="middle" x="174" y="-1670.3" font-family="Times,serif" font-size="14.00">6</text>
</g>
<!-- 4&#45;&gt;6 -->
<g id="edge5" class="edge">
<title>4&#45;&gt;6</title>
<path fill="none" stroke="black" d="M179.49,-1789.99C180.93,-1781.69 182.28,-1772.5 183,-1764 184.34,-1748.06 184.34,-1743.94 183,-1728 182.28,-1719.5 180.93,-1710.31 179.49,-1702.01"/>
<polygon fill="black" stroke="black" points="176.03,-1789.44 177.65,-1799.91 182.91,-1790.71 176.03,-1789.44"/>
<polygon fill="black" stroke="black" points="182.91,-1701.29 177.65,-1692.09 176.03,-1702.56 182.91,-1701.29"/>
</g>
<!-- 5&#45;&gt;6 -->
<g id="edge6" class="edge">
<title>5&#45;&gt;6</title>
<path fill="none" stroke="black" d="M157.01,-1719.06C159.24,-1713.26 161.62,-1707.1 163.86,-1701.29"/>
<polygon fill="black" stroke="black" points="153.73,-1717.82 153.4,-1728.41 160.26,-1720.34 153.73,-1717.82"/>
<polygon fill="black" stroke="black" points="167.13,-1702.55 167.46,-1691.96 160.6,-1700.03 167.13,-1702.55"/>
</g>
<!-- 7 -->
<g id="node7" class="node">
<title>7</title>
<ellipse fill="none" stroke="black" cx="174" cy="-1602" rx="27" ry="18"/>
<text text-anchor="middle" x="174" y="-1598.3" font-family="Times,serif" font-size="14.00">7</text>
</g>
<!-- 6&#45;&gt;7 -->
<g id="edge7" class="edge">
<title>6&#45;&gt;7</title>
<path fill="none" stroke="black" d="M174,-1645.67C174,-1640.69 174,-1635.49 174,-1630.51"/>
<polygon fill="black" stroke="black" points="170.5,-1645.7 174,-1655.7 177.5,-1645.7 170.5,-1645.7"/>
<polygon fill="black" stroke="black" points="177.5,-1630.1 174,-1620.1 170.5,-1630.1 177.5,-1630.1"/>
</g>
<!-- 8 -->
<g id="node8" class="node">
<title>8</title>
<ellipse fill="none" stroke="black" cx="138" cy="-1530" rx="27" ry="18"/>
<text text-anchor="middle" x="138" y="-1526.3" font-family="Times,serif" font-size="14.00">8</text>
</g>
<!-- 7&#45;&gt;8 -->
<g id="edge8" class="edge">
<title>7&#45;&gt;8</title>
<path fill="none" stroke="black" d="M160.99,-1575.7C157.7,-1569.3 154.17,-1562.44 150.88,-1556.05"/>
<polygon fill="black" stroke="black" points="157.96,-1577.47 165.65,-1584.76 164.19,-1574.27 157.96,-1577.47"/>
<polygon fill="black" stroke="black" points="153.99,-1554.44 146.3,-1547.15 147.77,-1557.64 153.99,-1554.44"/>
</g>
<!-- 9 -->
<g id="node9" class="node">
<title>9</title>
<ellipse fill="none" stroke="black" cx="210" cy="-1530" rx="27" ry="18"/>
<text text-anchor="middle" x="210" y="-1526.3" font-family="Times,serif" font-size="14.00">9</text>
</g>
<!-- 7&#45;&gt;9 -->
<g id="edge9" class="edge">
<title>7&#45;&gt;9</title>
<path fill="none" stroke="black" d="M187.01,-1575.7C190.3,-1569.3 193.83,-1562.44 197.12,-1556.05"/>
<polygon fill="black" stroke="black" points="183.81,-1574.27 182.35,-1584.76 190.04,-1577.47 183.81,-1574.27"/>
<polygon fill="black" stroke="black" points="200.23,-1557.64 201.7,-1547.15 194.01,-1554.44 200.23,-1557.64"/>
</g>
<!-- 10 -->
<g id="node10" class="node">
<title>10</title>
<ellipse fill="none" stroke="black" cx="210" cy="-1458" rx="27" ry="18"/>
<text text-anchor="middle" x="210" y="-1454.3" font-family="Times,serif" font-size="14.00">10</text>
</g>
<!-- 9&#45;&gt;10 -->
<g id="edge10" class="edge">
<title>9&#45;&gt;10</title>
<path fill="none" stroke="black" d="M210,-1501.67C210,-1496.69 210,-1491.49 210,-1486.51"/>
<polygon fill="black" stroke="black" points="206.5,-1501.7 210,-1511.7 213.5,-1501.7 206.5,-1501.7"/>
<polygon fill="black" stroke="black" points="213.5,-1486.1 210,-1476.1 206.5,-1486.1 213.5,-1486.1"/>
</g>
<!-- 11 -->
<g id="node11" class="node">
<title>11</title>
<ellipse fill="none" stroke="black" cx="164" cy="-1386" rx="27" ry="18"/>
<text text-anchor="middle" x="164" y="-1382.3" font-family="Times,serif" font-size="14.00">11</text>
</g>
<!-- 9&#45;&gt;11 -->
<g id="edge11" class="edge">
<title>9&#45;&gt;11</title>
<path fill="none" stroke="black" d="M190.58,-1505.7C184.26,-1496.91 177.88,-1486.48 174,-1476 166.68,-1456.22 164.31,-1432.42 163.7,-1414.41"/>
<polygon fill="black" stroke="black" points="187.96,-1508.03 196.79,-1513.89 193.54,-1503.8 187.96,-1508.03"/>
<polygon fill="black" stroke="black" points="167.2,-1414.23 163.52,-1404.29 160.2,-1414.35 167.2,-1414.23"/>
</g>
<!-- 12 -->
<g id="node12" class="node">
<title>12</title>
<ellipse fill="none" stroke="black" cx="219" cy="-1314" rx="27" ry="18"/>
<text text-anchor="middle" x="219" y="-1310.3" font-family="Times,serif" font-size="14.00">12</text>
</g>
<!-- 9&#45;&gt;12 -->
<g id="edge12" class="edge">
<title>9&#45;&gt;12</title>
<path fill="none" stroke="black" d="M230.07,-1505.92C236.46,-1497.15 242.71,-1486.69 246,-1476 260.28,-1429.56 243.32,-1373.11 230.56,-1340.89"/>
<polygon fill="black" stroke="black" points="227.12,-1504.02 223.75,-1514.07 232.65,-1508.31 227.12,-1504.02"/>
<polygon fill="black" stroke="black" points="233.67,-1339.23 226.61,-1331.32 227.2,-1341.9 233.67,-1339.23"/>
</g>
<!-- 10&#45;&gt;11 -->
<g id="edge13" class="edge">
<title>10&#45;&gt;11</title>
<path fill="none" stroke="black" d="M193.91,-1432.51C189.46,-1425.74 184.62,-1418.39 180.17,-1411.6"/>
<polygon fill="black" stroke="black" points="191.15,-1434.68 199.56,-1441.12 197,-1430.84 191.15,-1434.68"/>
<polygon fill="black" stroke="black" points="182.81,-1409.26 174.4,-1402.82 176.96,-1413.1 182.81,-1409.26"/>
</g>
<!-- 10&#45;&gt;12 -->
<g id="edge14" class="edge">
<title>10&#45;&gt;12</title>
<path fill="none" stroke="black" d="M211.73,-1429.68C213.32,-1404.6 215.66,-1367.63 217.26,-1342.49"/>
<polygon fill="black" stroke="black" points="208.23,-1429.67 211.09,-1439.87 215.21,-1430.11 208.23,-1429.67"/>
<polygon fill="black" stroke="black" points="220.77,-1342.39 217.91,-1332.19 213.78,-1341.95 220.77,-1342.39"/>
</g>
<!-- 11&#45;&gt;12 -->
<g id="edge15" class="edge">
<title>11&#45;&gt;12</title>
<path fill="none" stroke="black" d="M182.17,-1361.87C188.19,-1354.21 194.88,-1345.69 200.9,-1338.04"/>
<polygon fill="black" stroke="black" points="179.36,-1359.79 175.93,-1369.81 184.86,-1364.11 179.36,-1359.79"/>
<polygon fill="black" stroke="black" points="203.66,-1340.18 207.09,-1330.16 198.16,-1335.86 203.66,-1340.18"/>
</g>
<!-- 13 -->
<g id="node13" class="node">
<title>13</title>
<ellipse fill="none" stroke="black" cx="219" cy="-1242" rx="27" ry="18"/>
<text text-anchor="middle" x="219" y="-1238.3" font-family="Times,serif" font-size="14.00">13</text>
</g>
<!-- 12&#45;&gt;13 -->
<g id="edge16" class="edge">
<title>12&#45;&gt;13</title>
<path fill="none" stroke="black" d="M219,-1285.67C219,-1280.69 219,-1275.49 219,-1270.51"/>
<polygon fill="black" stroke="black" points="215.5,-1285.7 219,-1295.7 222.5,-1285.7 215.5,-1285.7"/>
<polygon fill="black" stroke="black" points="222.5,-1270.1 219,-1260.1 215.5,-1270.1 222.5,-1270.1"/>
</g>
<!-- 14 -->
<g id="node14" class="node">
<title>14</title>
<ellipse fill="none" stroke="black" cx="192" cy="-1170" rx="27" ry="18"/>
<text text-anchor="middle" x="192" y="-1166.3" font-family="Times,serif" font-size="14.00">14</text>
</g>
<!-- 13&#45;&gt;14 -->
<g id="edge17" class="edge">
<title>13&#45;&gt;14</title>
<path fill="none" stroke="black" d="M208.99,-1215.06C206.76,-1209.26 204.38,-1203.1 202.14,-1197.29"/>
<polygon fill="black" stroke="black" points="205.74,-1216.34 212.6,-1224.41 212.27,-1213.82 205.74,-1216.34"/>
<polygon fill="black" stroke="black" points="205.4,-1196.03 198.54,-1187.96 198.87,-1198.55 205.4,-1196.03"/>
</g>
<!-- 37 -->
<g id="node37" class="node">
<title>37</title>
<ellipse fill="none" stroke="black" cx="247" cy="-1098" rx="27" ry="18"/>
<text text-anchor="middle" x="247" y="-1094.3" font-family="Times,serif" font-size="14.00">37</text>
</g>
<!-- 13&#45;&gt;37 -->
<g id="edge18" class="edge">
<title>13&#45;&gt;37</title>
<path fill="none" stroke="black" d="M224.31,-1214.06C229.28,-1188.88 236.65,-1151.47 241.64,-1126.2"/>
<polygon fill="black" stroke="black" points="220.88,-1213.38 222.38,-1223.87 227.75,-1214.74 220.88,-1213.38"/>
<polygon fill="black" stroke="black" points="245.11,-1126.68 243.61,-1116.19 238.24,-1125.32 245.11,-1126.68"/>
</g>
<!-- 15 -->
<g id="node15" class="node">
<title>15</title>
<ellipse fill="none" stroke="black" cx="175" cy="-1098" rx="27" ry="18"/>
<text text-anchor="middle" x="175" y="-1094.3" font-family="Times,serif" font-size="14.00">15</text>
</g>
<!-- 14&#45;&gt;15 -->
<g id="edge19" class="edge">
<title>14&#45;&gt;15</title>
<path fill="none" stroke="black" d="M185.51,-1142.29C184.22,-1136.97 182.87,-1131.39 181.57,-1126.06"/>
<polygon fill="black" stroke="black" points="182.12,-1143.16 187.88,-1152.05 188.93,-1141.51 182.12,-1143.16"/>
<polygon fill="black" stroke="black" points="184.96,-1125.17 179.2,-1116.28 178.15,-1126.82 184.96,-1125.17"/>
</g>
<!-- 14&#45;&gt;37 -->
<g id="edge20" class="edge">
<title>14&#45;&gt;37</title>
<path fill="none" stroke="black" d="M210.17,-1145.87C216.19,-1138.21 222.88,-1129.69 228.9,-1122.04"/>
<polygon fill="black" stroke="black" points="207.36,-1143.79 203.93,-1153.81 212.86,-1148.11 207.36,-1143.79"/>
<polygon fill="black" stroke="black" points="231.66,-1124.18 235.09,-1114.16 226.16,-1119.86 231.66,-1124.18"/>
</g>
<!-- 16 -->
<g id="node16" class="node">
<title>16</title>
<ellipse fill="none" stroke="black" cx="103" cy="-1026" rx="27" ry="18"/>
<text text-anchor="middle" x="103" y="-1022.3" font-family="Times,serif" font-size="14.00">16</text>
</g>
<!-- 15&#45;&gt;16 -->
<g id="edge21" class="edge">
<title>15&#45;&gt;16</title>
<path fill="none" stroke="black" d="M152.96,-1075.57C144.13,-1066.99 133.99,-1057.13 125.15,-1048.54"/>
<polygon fill="black" stroke="black" points="150.82,-1078.37 160.43,-1082.83 155.7,-1073.35 150.82,-1078.37"/>
<polygon fill="black" stroke="black" points="127.41,-1045.85 117.8,-1041.38 122.53,-1050.87 127.41,-1045.85"/>
</g>
<!-- 17 -->
<g id="node17" class="node">
<title>17</title>
<ellipse fill="none" stroke="black" cx="175" cy="-1026" rx="27" ry="18"/>
<text text-anchor="middle" x="175" y="-1022.3" font-family="Times,serif" font-size="14.00">17</text>
</g>
<!-- 15&#45;&gt;17 -->
<g id="edge22" class="edge">
<title>15&#45;&gt;17</title>
<path fill="none" stroke="black" d="M175,-1069.67C175,-1064.69 175,-1059.49 175,-1054.51"/>
<polygon fill="black" stroke="black" points="171.5,-1069.7 175,-1079.7 178.5,-1069.7 171.5,-1069.7"/>
<polygon fill="black" stroke="black" points="178.5,-1054.1 175,-1044.1 171.5,-1054.1 178.5,-1054.1"/>
</g>
<!-- 18 -->
<g id="node18" class="node">
<title>18</title>
<ellipse fill="none" stroke="black" cx="173" cy="-954" rx="27" ry="18"/>
<text text-anchor="middle" x="173" y="-950.3" font-family="Times,serif" font-size="14.00">18</text>
</g>
<!-- 17&#45;&gt;18 -->
<g id="edge23" class="edge">
<title>17&#45;&gt;18</title>
<path fill="none" stroke="black" d="M174.22,-997.67C174.07,-992.55 173.92,-987.21 173.77,-982.1"/>
<polygon fill="black" stroke="black" points="170.72,-997.8 174.51,-1007.7 177.72,-997.6 170.72,-997.8"/>
<polygon fill="black" stroke="black" points="177.27,-982 173.49,-972.1 170.28,-982.2 177.27,-982"/>
</g>
<!-- 19 -->
<g id="node19" class="node">
<title>19</title>
<ellipse fill="none" stroke="black" cx="167" cy="-882" rx="27" ry="18"/>
<text text-anchor="middle" x="167" y="-878.3" font-family="Times,serif" font-size="14.00">19</text>
</g>
<!-- 18&#45;&gt;19 -->
<g id="edge24" class="edge">
<title>18&#45;&gt;19</title>
<path fill="none" stroke="black" d="M170.66,-925.67C170.22,-920.55 169.76,-915.21 169.32,-910.1"/>
<polygon fill="black" stroke="black" points="167.18,-926.03 171.52,-935.7 174.15,-925.43 167.18,-926.03"/>
<polygon fill="black" stroke="black" points="172.81,-909.77 168.47,-900.1 165.83,-910.37 172.81,-909.77"/>
</g>
<!-- 20 -->
<g id="node20" class="node">
<title>20</title>
<ellipse fill="none" stroke="black" cx="156" cy="-810" rx="27" ry="18"/>
<text text-anchor="middle" x="156" y="-806.3" font-family="Times,serif" font-size="14.00">20</text>
</g>
<!-- 19&#45;&gt;20 -->
<g id="edge25" class="edge">
<title>19&#45;&gt;20</title>
<path fill="none" stroke="black" d="M162.76,-854.01C161.95,-848.87 161.11,-843.5 160.3,-838.36"/>
<polygon fill="black" stroke="black" points="159.33,-854.72 164.34,-864.05 166.24,-853.63 159.33,-854.72"/>
<polygon fill="black" stroke="black" points="163.72,-837.61 158.71,-828.28 156.81,-838.7 163.72,-837.61"/>
</g>
<!-- 21 -->
<g id="node21" class="node">
<title>21</title>
<ellipse fill="none" stroke="black" cx="101" cy="-738" rx="27" ry="18"/>
<text text-anchor="middle" x="101" y="-734.3" font-family="Times,serif" font-size="14.00">21</text>
</g>
<!-- 20&#45;&gt;21 -->
<g id="edge26" class="edge">
<title>20&#45;&gt;21</title>
<path fill="none" stroke="black" d="M137.83,-785.87C131.81,-778.21 125.12,-769.69 119.1,-762.04"/>
<polygon fill="black" stroke="black" points="135.14,-788.11 144.07,-793.81 140.64,-783.79 135.14,-788.11"/>
<polygon fill="black" stroke="black" points="121.84,-759.86 112.91,-754.16 116.34,-764.18 121.84,-759.86"/>
</g>
<!-- 22 -->
<g id="node22" class="node">
<title>22</title>
<ellipse fill="none" stroke="black" cx="101" cy="-666" rx="27" ry="18"/>
<text text-anchor="middle" x="101" y="-662.3" font-family="Times,serif" font-size="14.00">22</text>
</g>
<!-- 20&#45;&gt;22 -->
<g id="edge27" class="edge">
<title>20&#45;&gt;22</title>
<path fill="none" stroke="black" d="M152.98,-781.87C150.3,-763.8 145.46,-739.83 137,-720 132.61,-709.72 126.12,-699.34 119.85,-690.53"/>
<polygon fill="black" stroke="black" points="149.54,-782.57 154.34,-792.01 156.48,-781.63 149.54,-782.57"/>
<polygon fill="black" stroke="black" points="122.52,-688.24 113.75,-682.3 116.89,-692.41 122.52,-688.24"/>
</g>
<!-- 21&#45;&gt;22 -->
<g id="edge28" class="edge">
<title>21&#45;&gt;22</title>
<path fill="none" stroke="black" d="M101,-709.67C101,-704.69 101,-699.49 101,-694.51"/>
<polygon fill="black" stroke="black" points="97.5,-709.7 101,-719.7 104.5,-709.7 97.5,-709.7"/>
<polygon fill="black" stroke="black" points="104.5,-694.1 101,-684.1 97.5,-694.1 104.5,-694.1"/>
</g>
<!-- 23 -->
<g id="node23" class="node">
<title>23</title>
<ellipse fill="none" stroke="black" cx="28" cy="-594" rx="27" ry="18"/>
<text text-anchor="middle" x="28" y="-590.3" font-family="Times,serif" font-size="14.00">23</text>
</g>
<!-- 22&#45;&gt;23 -->
<g id="edge29" class="edge">
<title>22&#45;&gt;23</title>
<path fill="none" stroke="black" d="M78.93,-643.84C69.78,-635.06 59.18,-624.9 50.03,-616.13"/>
<polygon fill="black" stroke="black" points="76.59,-646.44 86.23,-650.83 81.43,-641.39 76.59,-646.44"/>
<polygon fill="black" stroke="black" points="52.39,-613.54 42.75,-609.14 47.55,-618.59 52.39,-613.54"/>
</g>
<!-- 25 -->
<g id="node25" class="node">
<title>25</title>
<ellipse fill="none" stroke="black" cx="100" cy="-594" rx="27" ry="18"/>
<text text-anchor="middle" x="100" y="-590.3" font-family="Times,serif" font-size="14.00">25</text>
</g>
<!-- 22&#45;&gt;25 -->
<g id="edge30" class="edge">
<title>22&#45;&gt;25</title>
<path fill="none" stroke="black" d="M100.61,-637.67C100.54,-632.55 100.46,-627.21 100.39,-622.1"/>
<polygon fill="black" stroke="black" points="97.11,-637.75 100.75,-647.7 104.11,-637.65 97.11,-637.75"/>
<polygon fill="black" stroke="black" points="103.89,-622.05 100.24,-612.1 96.89,-622.15 103.89,-622.05"/>
</g>
<!-- 26 -->
<g id="node26" class="node">
<title>26</title>
<ellipse fill="none" stroke="black" cx="172" cy="-594" rx="27" ry="18"/>
<text text-anchor="middle" x="172" y="-590.3" font-family="Times,serif" font-size="14.00">26</text>
</g>
<!-- 22&#45;&gt;26 -->
<g id="edge31" class="edge">
<title>22&#45;&gt;26</title>
<path fill="none" stroke="black" d="M123.03,-643.28C131.65,-634.78 141.52,-625.05 150.13,-616.56"/>
<polygon fill="black" stroke="black" points="120.38,-640.98 115.71,-650.5 125.29,-645.97 120.38,-640.98"/>
<polygon fill="black" stroke="black" points="152.64,-619 157.31,-609.49 147.73,-614.01 152.64,-619"/>
</g>
<!-- 24 -->
<g id="node24" class="node">
<title>24</title>
<ellipse fill="none" stroke="black" cx="28" cy="-522" rx="27" ry="18"/>
<text text-anchor="middle" x="28" y="-518.3" font-family="Times,serif" font-size="14.00">24</text>
</g>
<!-- 23&#45;&gt;24 -->
<g id="edge32" class="edge">
<title>23&#45;&gt;24</title>
<path fill="none" stroke="black" d="M28,-565.67C28,-560.69 28,-555.49 28,-550.51"/>
<polygon fill="black" stroke="black" points="24.5,-565.7 28,-575.7 31.5,-565.7 24.5,-565.7"/>
<polygon fill="black" stroke="black" points="31.5,-550.1 28,-540.1 24.5,-550.1 31.5,-550.1"/>
</g>
<!-- 27 -->
<g id="node27" class="node">
<title>27</title>
<ellipse fill="none" stroke="black" cx="171" cy="-522" rx="27" ry="18"/>
<text text-anchor="middle" x="171" y="-518.3" font-family="Times,serif" font-size="14.00">27</text>
</g>
<!-- 26&#45;&gt;27 -->
<g id="edge33" class="edge">
<title>26&#45;&gt;27</title>
<path fill="none" stroke="black" d="M171.61,-565.67C171.54,-560.55 171.46,-555.21 171.39,-550.1"/>
<polygon fill="black" stroke="black" points="168.11,-565.75 171.75,-575.7 175.11,-565.65 168.11,-565.75"/>
<polygon fill="black" stroke="black" points="174.89,-550.05 171.24,-540.1 167.89,-550.15 174.89,-550.05"/>
</g>
<!-- 28 -->
<g id="node28" class="node">
<title>28</title>
<ellipse fill="none" stroke="black" cx="99" cy="-450" rx="27" ry="18"/>
<text text-anchor="middle" x="99" y="-446.3" font-family="Times,serif" font-size="14.00">28</text>
</g>
<!-- 27&#45;&gt;28 -->
<g id="edge34" class="edge">
<title>27&#45;&gt;28</title>
<path fill="none" stroke="black" d="M148.96,-499.57C140.13,-490.99 129.99,-481.13 121.15,-472.54"/>
<polygon fill="black" stroke="black" points="146.82,-502.37 156.43,-506.83 151.7,-497.35 146.82,-502.37"/>
<polygon fill="black" stroke="black" points="123.41,-469.85 113.8,-465.38 118.53,-474.87 123.41,-469.85"/>
</g>
<!-- 29 -->
<g id="node29" class="node">
<title>29</title>
<ellipse fill="none" stroke="black" cx="171" cy="-450" rx="27" ry="18"/>
<text text-anchor="middle" x="171" y="-446.3" font-family="Times,serif" font-size="14.00">29</text>
</g>
<!-- 27&#45;&gt;29 -->
<g id="edge35" class="edge">
<title>27&#45;&gt;29</title>
<path fill="none" stroke="black" d="M171,-493.67C171,-488.69 171,-483.49 171,-478.51"/>
<polygon fill="black" stroke="black" points="167.5,-493.7 171,-503.7 174.5,-493.7 167.5,-493.7"/>
<polygon fill="black" stroke="black" points="174.5,-478.1 171,-468.1 167.5,-478.1 174.5,-478.1"/>
</g>
<!-- 30 -->
<g id="node30" class="node">
<title>30</title>
<ellipse fill="none" stroke="black" cx="199" cy="-378" rx="27" ry="18"/>
<text text-anchor="middle" x="199" y="-374.3" font-family="Times,serif" font-size="14.00">30</text>
</g>
<!-- 27&#45;&gt;30 -->
<g id="edge36" class="edge">
<title>27&#45;&gt;30</title>
<path fill="none" stroke="black" d="M191.07,-497.92C197.46,-489.15 203.71,-478.69 207,-468 213.25,-447.67 210.51,-423.59 206.62,-405.61"/>
<polygon fill="black" stroke="black" points="188.12,-496.02 184.75,-506.07 193.65,-500.31 188.12,-496.02"/>
<polygon fill="black" stroke="black" points="210,-404.7 204.25,-395.8 203.2,-406.34 210,-404.7"/>
</g>
<!-- 31 -->
<g id="node31" class="node">
<title>31</title>
<ellipse fill="none" stroke="black" cx="99" cy="-378" rx="27" ry="18"/>
<text text-anchor="middle" x="99" y="-374.3" font-family="Times,serif" font-size="14.00">31</text>
</g>
<!-- 28&#45;&gt;31 -->
<g id="edge37" class="edge">
<title>28&#45;&gt;31</title>
<path fill="none" stroke="black" d="M99,-421.67C99,-416.69 99,-411.49 99,-406.51"/>
<polygon fill="black" stroke="black" points="95.5,-421.7 99,-431.7 102.5,-421.7 95.5,-421.7"/>
<polygon fill="black" stroke="black" points="102.5,-406.1 99,-396.1 95.5,-406.1 102.5,-406.1"/>
</g>
<!-- 29&#45;&gt;30 -->
<g id="edge38" class="edge">
<title>29&#45;&gt;30</title>
<path fill="none" stroke="black" d="M181.44,-422.91C183.79,-417.02 186.29,-410.77 188.64,-404.89"/>
<polygon fill="black" stroke="black" points="178.1,-421.83 177.64,-432.41 184.6,-424.43 178.1,-421.83"/>
<polygon fill="black" stroke="black" points="191.95,-406.05 192.41,-395.47 185.45,-403.45 191.95,-406.05"/>
</g>
<!-- 32 -->
<g id="node32" class="node">
<title>32</title>
<ellipse fill="none" stroke="black" cx="99" cy="-306" rx="27" ry="18"/>
<text text-anchor="middle" x="99" y="-302.3" font-family="Times,serif" font-size="14.00">32</text>
</g>
<!-- 31&#45;&gt;32 -->
<g id="edge39" class="edge">
<title>31&#45;&gt;32</title>
<path fill="none" stroke="black" d="M99,-349.67C99,-344.69 99,-339.49 99,-334.51"/>
<polygon fill="black" stroke="black" points="95.5,-349.7 99,-359.7 102.5,-349.7 95.5,-349.7"/>
<polygon fill="black" stroke="black" points="102.5,-334.1 99,-324.1 95.5,-334.1 102.5,-334.1"/>
</g>
<!-- 33 -->
<g id="node33" class="node">
<title>33</title>
<ellipse fill="none" stroke="black" cx="27" cy="-234" rx="27" ry="18"/>
<text text-anchor="middle" x="27" y="-230.3" font-family="Times,serif" font-size="14.00">33</text>
</g>
<!-- 32&#45;&gt;33 -->
<g id="edge40" class="edge">
<title>32&#45;&gt;33</title>
<path fill="none" stroke="black" d="M76.96,-283.57C68.13,-274.99 57.99,-265.13 49.15,-256.54"/>
<polygon fill="black" stroke="black" points="74.82,-286.37 84.43,-290.83 79.7,-281.35 74.82,-286.37"/>
<polygon fill="black" stroke="black" points="51.41,-253.85 41.8,-249.38 46.53,-258.87 51.41,-253.85"/>
</g>
<!-- 34 -->
<g id="node34" class="node">
<title>34</title>
<ellipse fill="none" stroke="black" cx="99" cy="-234" rx="27" ry="18"/>
<text text-anchor="middle" x="99" y="-230.3" font-family="Times,serif" font-size="14.00">34</text>
</g>
<!-- 32&#45;&gt;34 -->
<g id="edge41" class="edge">
<title>32&#45;&gt;34</title>
<path fill="none" stroke="black" d="M99,-277.67C99,-272.69 99,-267.49 99,-262.51"/>
<polygon fill="black" stroke="black" points="95.5,-277.7 99,-287.7 102.5,-277.7 95.5,-277.7"/>
<polygon fill="black" stroke="black" points="102.5,-262.1 99,-252.1 95.5,-262.1 102.5,-262.1"/>
</g>
<!-- 35 -->
<g id="node35" class="node">
<title>35</title>
<ellipse fill="none" stroke="black" cx="171" cy="-234" rx="27" ry="18"/>
<text text-anchor="middle" x="171" y="-230.3" font-family="Times,serif" font-size="14.00">35</text>
</g>
<!-- 32&#45;&gt;35 -->
<g id="edge42" class="edge">
<title>32&#45;&gt;35</title>
<path fill="none" stroke="black" d="M121.04,-283.57C129.87,-274.99 140.01,-265.13 148.85,-256.54"/>
<polygon fill="black" stroke="black" points="118.3,-281.35 113.57,-290.83 123.18,-286.37 118.3,-281.35"/>
<polygon fill="black" stroke="black" points="151.47,-258.87 156.2,-249.38 146.59,-253.85 151.47,-258.87"/>
</g>
<!-- 36 -->
<g id="node36" class="node">
<title>36</title>
<ellipse fill="none" stroke="black" cx="93" cy="-162" rx="27" ry="18"/>
<text text-anchor="middle" x="93" y="-158.3" font-family="Times,serif" font-size="14.00">36</text>
</g>
<!-- 35&#45;&gt;36 -->
<g id="edge43" class="edge">
<title>35&#45;&gt;36</title>
<path fill="none" stroke="black" d="M148.05,-212.41C137.96,-203.35 126.14,-192.74 116.04,-183.68"/>
<polygon fill="black" stroke="black" points="145.81,-215.1 155.59,-219.17 150.48,-209.89 145.81,-215.1"/>
<polygon fill="black" stroke="black" points="118.16,-180.88 108.38,-176.8 113.48,-186.09 118.16,-180.88"/>
</g>
<!-- start -->
<g id="node48" class="node">
<title>start</title>
<ellipse fill="none" stroke="black" cx="171" cy="-162" rx="33.29" ry="18"/>
<text text-anchor="middle" x="171" y="-158.3" font-family="Times,serif" font-size="14.00">start</text>
</g>
<!-- 35&#45;&gt;start -->
<g id="edge44" class="edge">
<title>35&#45;&gt;start</title>
<path fill="none" stroke="black" d="M171,-205.67C171,-200.69 171,-195.49 171,-190.51"/>
<polygon fill="black" stroke="black" points="167.5,-205.7 171,-215.7 174.5,-205.7 167.5,-205.7"/>
<polygon fill="black" stroke="black" points="174.5,-190.1 171,-180.1 167.5,-190.1 174.5,-190.1"/>
</g>
<!-- 43 -->
<g id="node43" class="node">
<title>43</title>
<ellipse fill="none" stroke="black" cx="232" cy="-90" rx="27" ry="18"/>
<text text-anchor="middle" x="232" y="-86.3" font-family="Times,serif" font-size="14.00">43</text>
</g>
<!-- 36&#45;&gt;43 -->
<g id="edge45" class="edge">
<title>36&#45;&gt;43</title>
<path fill="none" stroke="black" d="M123.03,-145.88C146.37,-134.12 178.6,-117.89 201.95,-106.13"/>
<polygon fill="black" stroke="black" points="121.17,-142.9 113.81,-150.52 124.32,-149.15 121.17,-142.9"/>
<polygon fill="black" stroke="black" points="203.69,-109.18 211.05,-101.55 200.54,-102.92 203.69,-109.18"/>
</g>
<!-- 47 -->
<g id="node47" class="node">
<title>47</title>
<ellipse fill="none" stroke="black" cx="295" cy="-18" rx="27" ry="18"/>
<text text-anchor="middle" x="295" y="-14.3" font-family="Times,serif" font-size="14.00">47</text>
</g>
<!-- 36&#45;&gt;47 -->
<g id="edge46" class="edge">
<title>36&#45;&gt;47</title>
<path fill="none" stroke="black" d="M114.89,-139.54C134.98,-120.49 166.08,-92.56 196,-72 217.78,-57.04 244.24,-43.06 264.33,-33.22"/>
<polygon fill="black" stroke="black" points="112.3,-137.18 107.5,-146.62 117.14,-142.23 112.3,-137.18"/>
<polygon fill="black" stroke="black" points="265.87,-36.37 273.35,-28.87 262.82,-30.06 265.87,-36.37"/>
</g>
<!-- 38 -->
<g id="node38" class="node">
<title>38</title>
<ellipse fill="none" stroke="black" cx="302" cy="-1026" rx="27" ry="18"/>
<text text-anchor="middle" x="302" y="-1022.3" font-family="Times,serif" font-size="14.00">38</text>
</g>
<!-- 37&#45;&gt;38 -->
<g id="edge47" class="edge">
<title>37&#45;&gt;38</title>
<path fill="none" stroke="black" d="M265.17,-1073.87C271.19,-1066.21 277.88,-1057.69 283.9,-1050.04"/>
<polygon fill="black" stroke="black" points="262.36,-1071.79 258.93,-1081.81 267.86,-1076.11 262.36,-1071.79"/>
<polygon fill="black" stroke="black" points="286.66,-1052.18 290.09,-1042.16 281.16,-1047.86 286.66,-1052.18"/>
</g>
<!-- 39 -->
<g id="node39" class="node">
<title>39</title>
<ellipse fill="none" stroke="black" cx="248" cy="-954" rx="27" ry="18"/>
<text text-anchor="middle" x="248" y="-950.3" font-family="Times,serif" font-size="14.00">39</text>
</g>
<!-- 37&#45;&gt;39 -->
<g id="edge48" class="edge">
<title>37&#45;&gt;39</title>
<path fill="none" stroke="black" d="M247.19,-1069.68C247.37,-1044.6 247.63,-1007.63 247.81,-982.49"/>
<polygon fill="black" stroke="black" points="243.69,-1069.85 247.12,-1079.87 250.69,-1069.9 243.69,-1069.85"/>
<polygon fill="black" stroke="black" points="251.31,-982.21 247.88,-972.19 244.31,-982.16 251.31,-982.21"/>
</g>
<!-- 38&#45;&gt;39 -->
<g id="edge49" class="edge">
<title>38&#45;&gt;39</title>
<path fill="none" stroke="black" d="M283.75,-1001.34C278.1,-994.02 271.89,-985.97 266.24,-978.65"/>
<polygon fill="black" stroke="black" points="281.14,-1003.68 290.02,-1009.46 286.68,-999.41 281.14,-1003.68"/>
<polygon fill="black" stroke="black" points="268.83,-976.27 259.95,-970.49 263.29,-980.55 268.83,-976.27"/>
</g>
<!-- 40 -->
<g id="node40" class="node">
<title>40</title>
<ellipse fill="none" stroke="black" cx="304" cy="-882" rx="27" ry="18"/>
<text text-anchor="middle" x="304" y="-878.3" font-family="Times,serif" font-size="14.00">40</text>
</g>
<!-- 38&#45;&gt;40 -->
<g id="edge50" class="edge">
<title>38&#45;&gt;40</title>
<path fill="none" stroke="black" d="M302.38,-997.68C302.74,-972.6 303.26,-935.63 303.61,-910.49"/>
<polygon fill="black" stroke="black" points="298.88,-997.82 302.24,-1007.87 305.88,-997.92 298.88,-997.82"/>
<polygon fill="black" stroke="black" points="307.12,-910.24 303.76,-900.19 300.12,-910.14 307.12,-910.24"/>
</g>
<!-- 42 -->
<g id="node42" class="node">
<title>42</title>
<ellipse fill="none" stroke="black" cx="359" cy="-234" rx="27" ry="18"/>
<text text-anchor="middle" x="359" y="-230.3" font-family="Times,serif" font-size="14.00">42</text>
</g>
<!-- 40&#45;&gt;42 -->
<g id="edge51" class="edge">
<title>40&#45;&gt;42</title>
<path fill="none" stroke="black" d="M304,-853.92C304,-825.35 304,-779 304,-739 304,-739 304,-739 304,-377 304,-336.55 307.12,-325.2 323,-288 327.39,-277.72 333.88,-267.34 340.15,-258.53"/>
<polygon fill="black" stroke="black" points="300.5,-853.95 304,-863.95 307.5,-853.95 300.5,-853.95"/>
<polygon fill="black" stroke="black" points="343.11,-260.41 346.25,-250.3 337.48,-256.24 343.11,-260.41"/>
</g>
<!-- 41 -->
<g id="node41" class="node">
<title>41</title>
<ellipse fill="none" stroke="black" cx="359" cy="-306" rx="27" ry="18"/>
<text text-anchor="middle" x="359" y="-302.3" font-family="Times,serif" font-size="14.00">41</text>
</g>
<!-- 41&#45;&gt;42 -->
<g id="edge52" class="edge">
<title>41&#45;&gt;42</title>
<path fill="none" stroke="black" d="M359,-277.67C359,-272.69 359,-267.49 359,-262.51"/>
<polygon fill="black" stroke="black" points="355.5,-277.7 359,-287.7 362.5,-277.7 355.5,-277.7"/>
<polygon fill="black" stroke="black" points="362.5,-262.1 359,-252.1 355.5,-262.1 362.5,-262.1"/>
</g>
<!-- 42&#45;&gt;43 -->
<g id="edge53" class="edge">
<title>42&#45;&gt;43</title>
<path fill="none" stroke="black" d="M323.65,-224.42C299.6,-216.75 268.98,-203.06 251,-180 237.37,-162.53 232.97,-137.49 231.78,-118.41"/>
<polygon fill="black" stroke="black" points="322.92,-227.85 333.5,-227.35 324.91,-221.14 322.92,-227.85"/>
<polygon fill="black" stroke="black" points="235.27,-118.11 231.41,-108.25 228.28,-118.37 235.27,-118.11"/>
</g>
<!-- 44 -->
<g id="node44" class="node">
<title>44</title>
<ellipse fill="none" stroke="black" cx="287" cy="-162" rx="27" ry="18"/>
<text text-anchor="middle" x="287" y="-158.3" font-family="Times,serif" font-size="14.00">44</text>
</g>
<!-- 42&#45;&gt;44 -->
<g id="edge54" class="edge">
<title>42&#45;&gt;44</title>
<path fill="none" stroke="black" d="M336.96,-211.57C328.13,-202.99 317.99,-193.13 309.15,-184.54"/>
<polygon fill="black" stroke="black" points="334.82,-214.37 344.43,-218.83 339.7,-209.35 334.82,-214.37"/>
<polygon fill="black" stroke="black" points="311.41,-181.85 301.8,-177.38 306.53,-186.87 311.41,-181.85"/>
</g>
<!-- 45 -->
<g id="node45" class="node">
<title>45</title>
<ellipse fill="none" stroke="black" cx="359" cy="-162" rx="27" ry="18"/>
<text text-anchor="middle" x="359" y="-158.3" font-family="Times,serif" font-size="14.00">45</text>
</g>
<!-- 42&#45;&gt;45 -->
<g id="edge55" class="edge">
<title>42&#45;&gt;45</title>
<path fill="none" stroke="black" d="M359,-205.67C359,-200.69 359,-195.49 359,-190.51"/>
<polygon fill="black" stroke="black" points="355.5,-205.7 359,-215.7 362.5,-205.7 355.5,-205.7"/>
<polygon fill="black" stroke="black" points="362.5,-190.1 359,-180.1 355.5,-190.1 362.5,-190.1"/>
</g>
<!-- 46 -->
<g id="node46" class="node">
<title>46</title>
<ellipse fill="none" stroke="black" cx="359" cy="-90" rx="27" ry="18"/>
<text text-anchor="middle" x="359" y="-86.3" font-family="Times,serif" font-size="14.00">46</text>
</g>
<!-- 42&#45;&gt;46 -->
<g id="edge56" class="edge">
<title>42&#45;&gt;46</title>
<path fill="none" stroke="black" d="M379.07,-209.92C385.46,-201.15 391.71,-190.69 395,-180 399.7,-164.71 399.7,-159.29 395,-144 391.71,-133.31 385.46,-122.85 379.07,-114.08"/>
<polygon fill="black" stroke="black" points="376.12,-208.02 372.75,-218.07 381.65,-212.31 376.12,-208.02"/>
<polygon fill="black" stroke="black" points="381.65,-111.69 372.75,-105.93 376.12,-115.98 381.65,-111.69"/>
</g>
<!-- 42&#45;&gt;47 -->
<g id="edge57" class="edge">
<title>42&#45;&gt;47</title>
<path fill="none" stroke="black" d="M384.59,-213.77C394.51,-204.74 404.73,-193.08 410,-180 428.11,-135.05 424.11,-110.74 395,-72 378.93,-50.61 351.67,-36.98 329.66,-28.91"/>
<polygon fill="black" stroke="black" points="382.14,-211.27 376.81,-220.43 386.68,-216.59 382.14,-211.27"/>
<polygon fill="black" stroke="black" points="330.58,-25.52 319.98,-25.58 328.3,-32.14 330.58,-25.52"/>
</g>
<!-- goal -->
<g id="node49" class="node">
<title>goal</title>
<ellipse fill="none" stroke="black" cx="511" cy="-162" rx="30.59" ry="18"/>
<text text-anchor="middle" x="511" y="-158.3" font-family="Times,serif" font-size="14.00">goal</text>
</g>
<!-- 42&#45;&gt;goal -->
<g id="edge58" class="edge">
<title>42&#45;&gt;goal</title>
<path fill="none" stroke="black" d="M390.04,-218.7C415.85,-206.82 452.47,-189.96 478.64,-177.9"/>
<polygon fill="black" stroke="black" points="388.4,-215.61 380.78,-222.97 391.33,-221.97 388.4,-215.61"/>
<polygon fill="black" stroke="black" points="480.15,-181.06 487.77,-173.7 477.22,-174.7 480.15,-181.06"/>
</g>
<!-- 43&#45;&gt;47 -->
<g id="edge59" class="edge">
<title>43&#45;&gt;47</title>
<path fill="none" stroke="black" d="M252.33,-66.41C259.54,-58.4 267.64,-49.4 274.83,-41.41"/>
<polygon fill="black" stroke="black" points="249.45,-64.38 245.36,-74.15 254.65,-69.06 249.45,-64.38"/>
<polygon fill="black" stroke="black" points="277.57,-43.6 281.66,-33.82 272.37,-38.92 277.57,-43.6"/>
</g>
<!-- 45&#45;&gt;46 -->
<g id="edge60" class="edge">
<title>45&#45;&gt;46</title>
<path fill="none" stroke="black" d="M359,-133.67C359,-128.69 359,-123.49 359,-118.51"/>
<polygon fill="black" stroke="black" points="355.5,-133.7 359,-143.7 362.5,-133.7 355.5,-133.7"/>
<polygon fill="black" stroke="black" points="362.5,-118.1 359,-108.1 355.5,-118.1 362.5,-118.1"/>
</g>
<!-- 46&#45;&gt;47 -->
<g id="edge61" class="edge">
<title>46&#45;&gt;47</title>
<path fill="none" stroke="black" d="M338.64,-66.73C331.19,-58.58 322.77,-49.37 315.33,-41.23"/>
<polygon fill="black" stroke="black" points="336.1,-69.14 345.43,-74.15 341.26,-64.41 336.1,-69.14"/>
<polygon fill="black" stroke="black" points="317.88,-38.84 308.55,-33.82 312.72,-43.57 317.88,-38.84"/>
</g>
</g>
</svg>
