<?xml version="1.0" encoding="UTF-8" standalone="no"?>
<!DOCTYPE svg PUBLIC "-//W3C//DTD SVG 1.1//EN"
 "http://www.w3.org/Graphics/SVG/1.1/DTD/svg11.dtd">
<!-- Generated by graphviz version 2.43.0 (0)
 -->
<!-- Title: GCS region connectivity Pages: 1 -->
<svg width="422pt" height="2060pt"
 viewBox="0.00 0.00 422.40 2060.00" xmlns="http://www.w3.org/2000/svg" xmlns:xlink="http://www.w3.org/1999/xlink">
<g id="graph0" class="graph" transform="scale(1 1) rotate(0) translate(4 2056)">
<title>GCS region connectivity</title>
<polygon fill="white" stroke="transparent" points="-4,4 -4,-2056 418.4,-2056 418.4,4 -4,4"/>
<!-- 1 -->
<g id="node1" class="node">
<title>1</title>
<ellipse fill="none" stroke="black" cx="237" cy="-2034" rx="27" ry="18"/>
<text text-anchor="middle" x="237" y="-2030.3" font-family="Times,serif" font-size="14.00">1</text>
</g>
<!-- 2 -->
<g id="node2" class="node">
<title>2</title>
<ellipse fill="none" stroke="black" cx="237" cy="-1962" rx="27" ry="18"/>
<text text-anchor="middle" x="237" y="-1958.3" font-family="Times,serif" font-size="14.00">2</text>
</g>
<!-- 1&#45;&gt;2 -->
<g id="edge1" class="edge">
<title>1&#45;&gt;2</title>
<path fill="none" stroke="black" d="M237,-2005.67C237,-2000.69 237,-1995.49 237,-1990.51"/>
<polygon fill="black" stroke="black" points="233.5,-2005.7 237,-2015.7 240.5,-2005.7 233.5,-2005.7"/>
<polygon fill="black" stroke="black" points="240.5,-1990.1 237,-1980.1 233.5,-1990.1 240.5,-1990.1"/>
</g>
<!-- 3 -->
<g id="node3" class="node">
<title>3</title>
<ellipse fill="none" stroke="black" cx="237" cy="-1890" rx="27" ry="18"/>
<text text-anchor="middle" x="237" y="-1886.3" font-family="Times,serif" font-size="14.00">3</text>
</g>
<!-- 2&#45;&gt;3 -->
<g id="edge2" class="edge">
<title>2&#45;&gt;3</title>
<path fill="none" stroke="black" d="M237,-1933.67C237,-1928.69 237,-1923.49 237,-1918.51"/>
<polygon fill="black" stroke="black" points="233.5,-1933.7 237,-1943.7 240.5,-1933.7 233.5,-1933.7"/>
<polygon fill="black" stroke="black" points="240.5,-1918.1 237,-1908.1 233.5,-1918.1 240.5,-1918.1"/>
</g>
<!-- 4 -->
<g id="node4" class="node">
<title>4</title>
<ellipse fill="none" stroke="black" cx="237" cy="-1818" rx="27" ry="18"/>
<text text-anchor="middle" x="237" y="-1814.3" font-family="Times,serif" font-size="14.00">4</text>
</g>
<!-- 3&#45;&gt;4 -->
<g id="edge3" class="edge">
<title>3&#45;&gt;4</title>
<path fill="none" stroke="black" d="M237,-1861.67C237,-1856.69 237,-1851.49 237,-1846.51"/>
<polygon fill="black" stroke="black" points="233.5,-1861.7 237,-1871.7 240.5,-1861.7 233.5,-1861.7"/>
<polygon fill="black" stroke="black" points="240.5,-1846.1 237,-1836.1 233.5,-1846.1 240.5,-1846.1"/>
</g>
<!-- 5 -->
<g id="node5" class="node">
<title>5</title>
<ellipse fill="none" stroke="black" cx="210" cy="-1746" rx="27" ry="18"/>
<text text-anchor="middle" x="210" y="-1742.3" font-family="Times,serif" font-size="14.00">5</text>
</g>
<!-- 4&#45;&gt;5 -->
<g id="edge4" class="edge">
<title>4&#45;&gt;5</title>
<path fill="none" stroke="black" d="M226.99,-1791.06C224.76,-1785.26 222.38,-1779.1 220.14,-1773.29"/>
<polygon fill="black" stroke="black" points="223.74,-1792.34 230.6,-1800.41 230.27,-1789.82 223.74,-1792.34"/>
<polygon fill="black" stroke="black" points="223.4,-1772.03 216.54,-1763.96 216.87,-1774.55 223.4,-1772.03"/>
</g>
<!-- 6 -->
<g id="node6" class="node">
<title>6</title>
<ellipse fill="none" stroke="black" cx="237" cy="-1674" rx="27" ry="18"/>
<text text-anchor="middle" x="237" y="-1670.3" font-family="Times,serif" font-size="14.00">6</text>
</g>
<!-- 4&#45;&gt;6 -->
<g id="edge5" class="edge">
<title>4&#45;&gt;6</title>
<path fill="none" stroke="black" d="M242.49,-1789.99C243.93,-1781.69 245.28,-1772.5 246,-1764 247.34,-1748.06 247.34,-1743.94 246,-1728 245.28,-1719.5 243.93,-1710.31 242.49,-1702.01"/>
<polygon fill="black" stroke="black" points="239.03,-1789.44 240.65,-1799.91 245.91,-1790.71 239.03,-1789.44"/>
<polygon fill="black" stroke="black" points="245.91,-1701.29 240.65,-1692.09 239.03,-1702.56 245.91,-1701.29"/>
</g>
<!-- 5&#45;&gt;6 -->
<g id="edge6" class="edge">
<title>5&#45;&gt;6</title>
<path fill="none" stroke="black" d="M220.01,-1719.06C222.24,-1713.26 224.62,-1707.1 226.86,-1701.29"/>
<polygon fill="black" stroke="black" points="216.73,-1717.82 216.4,-1728.41 223.26,-1720.34 216.73,-1717.82"/>
<polygon fill="black" stroke="black" points="230.13,-1702.55 230.46,-1691.96 223.6,-1700.03 230.13,-1702.55"/>
</g>
<!-- 7 -->
<g id="node7" class="node">
<title>7</title>
<ellipse fill="none" stroke="black" cx="237" cy="-1602" rx="27" ry="18"/>
<text text-anchor="middle" x="237" y="-1598.3" font-family="Times,serif" font-size="14.00">7</text>
</g>
<!-- 6&#45;&gt;7 -->
<g id="edge7" class="edge">
<title>6&#45;&gt;7</title>
<path fill="none" stroke="black" d="M237,-1645.67C237,-1640.69 237,-1635.49 237,-1630.51"/>
<polygon fill="black" stroke="black" points="233.5,-1645.7 237,-1655.7 240.5,-1645.7 233.5,-1645.7"/>
<polygon fill="black" stroke="black" points="240.5,-1630.1 237,-1620.1 233.5,-1630.1 240.5,-1630.1"/>
</g>
<!-- 8 -->
<g id="node8" class="node">
<title>8</title>
<ellipse fill="none" stroke="black" cx="165" cy="-1530" rx="27" ry="18"/>
<text text-anchor="middle" x="165" y="-1526.3" font-family="Times,serif" font-size="14.00">8</text>
</g>
<!-- 7&#45;&gt;8 -->
<g id="edge8" class="edge">
<title>7&#45;&gt;8</title>
<path fill="none" stroke="black" d="M214.96,-1579.57C206.13,-1570.99 195.99,-1561.13 187.15,-1552.54"/>
<polygon fill="black" stroke="black" points="212.82,-1582.37 222.43,-1586.83 217.7,-1577.35 212.82,-1582.37"/>
<polygon fill="black" stroke="black" points="189.41,-1549.85 179.8,-1545.38 184.53,-1554.87 189.41,-1549.85"/>
</g>
<!-- 9 -->
<g id="node9" class="node">
<title>9</title>
<ellipse fill="none" stroke="black" cx="237" cy="-1530" rx="27" ry="18"/>
<text text-anchor="middle" x="237" y="-1526.3" font-family="Times,serif" font-size="14.00">9</text>
</g>
<!-- 7&#45;&gt;9 -->
<g id="edge9" class="edge">
<title>7&#45;&gt;9</title>
<path fill="none" stroke="black" d="M237,-1573.67C237,-1568.69 237,-1563.49 237,-1558.51"/>
<polygon fill="black" stroke="black" points="233.5,-1573.7 237,-1583.7 240.5,-1573.7 233.5,-1573.7"/>
<polygon fill="black" stroke="black" points="240.5,-1558.1 237,-1548.1 233.5,-1558.1 240.5,-1558.1"/>
</g>
<!-- start -->
<g id="node48" class="node">
<title>start</title>
<ellipse fill="none" stroke="black" cx="315" cy="-1530" rx="33.29" ry="18"/>
<text text-anchor="middle" x="315" y="-1526.3" font-family="Times,serif" font-size="14.00">start</text>
</g>
<!-- 7&#45;&gt;start -->
<g id="edge10" class="edge">
<title>7&#45;&gt;start</title>
<path fill="none" stroke="black" d="M260.09,-1580.28C269.84,-1571.53 281.19,-1561.34 291.03,-1552.51"/>
<polygon fill="black" stroke="black" points="257.52,-1577.89 252.41,-1587.17 262.19,-1583.1 257.52,-1577.89"/>
<polygon fill="black" stroke="black" points="293.44,-1555.05 298.54,-1545.77 288.76,-1549.84 293.44,-1555.05"/>
</g>
<!-- 10 -->
<g id="node10" class="node">
<title>10</title>
<ellipse fill="none" stroke="black" cx="237" cy="-1458" rx="27" ry="18"/>
<text text-anchor="middle" x="237" y="-1454.3" font-family="Times,serif" font-size="14.00">10</text>
</g>
<!-- 9&#45;&gt;10 -->
<g id="edge11" class="edge">
<title>9&#45;&gt;10</title>
<path fill="none" stroke="black" d="M237,-1501.67C237,-1496.69 237,-1491.49 237,-1486.51"/>
<polygon fill="black" stroke="black" points="233.5,-1501.7 237,-1511.7 240.5,-1501.7 233.5,-1501.7"/>
<polygon fill="black" stroke="black" points="240.5,-1486.1 237,-1476.1 233.5,-1486.1 240.5,-1486.1"/>
</g>
<!-- 11 -->
<g id="node11" class="node">
<title>11</title>
<ellipse fill="none" stroke="black" cx="191" cy="-1386" rx="27" ry="18"/>
<text text-anchor="middle" x="191" y="-1382.3" font-family="Times,serif" font-size="14.00">11</text>
</g>
<!-- 9&#45;&gt;11 -->
<g id="edge12" class="edge">
<title>9&#45;&gt;11</title>
<path fill="none" stroke="black" d="M217.58,-1505.7C211.26,-1496.91 204.88,-1486.48 201,-1476 193.68,-1456.22 191.31,-1432.42 190.7,-1414.41"/>
<polygon fill="black" stroke="black" points="214.96,-1508.03 223.79,-1513.89 220.54,-1503.8 214.96,-1508.03"/>
<polygon fill="black" stroke="black" points="194.2,-1414.23 190.52,-1404.29 187.2,-1414.35 194.2,-1414.23"/>
</g>
<!-- 12 -->
<g id="node12" class="node">
<title>12</title>
<ellipse fill="none" stroke="black" cx="246" cy="-1314" rx="27" ry="18"/>
<text text-anchor="middle" x="246" y="-1310.3" font-family="Times,serif" font-size="14.00">12</text>
</g>
<!-- 9&#45;&gt;12 -->
<g id="edge13" class="edge">
<title>9&#45;&gt;12</title>
<path fill="none" stroke="black" d="M257.07,-1505.92C263.46,-1497.15 269.71,-1486.69 273,-1476 287.28,-1429.56 270.32,-1373.11 257.56,-1340.89"/>
<polygon fill="black" stroke="black" points="254.12,-1504.02 250.75,-1514.07 259.65,-1508.31 254.12,-1504.02"/>
<polygon fill="black" stroke="black" points="260.67,-1339.23 253.61,-1331.32 254.2,-1341.9 260.67,-1339.23"/>
</g>
<!-- 10&#45;&gt;11 -->
<g id="edge14" class="edge">
<title>10&#45;&gt;11</title>
<path fill="none" stroke="black" d="M220.91,-1432.51C216.46,-1425.74 211.62,-1418.39 207.17,-1411.6"/>
<polygon fill="black" stroke="black" points="218.15,-1434.68 226.56,-1441.12 224,-1430.84 218.15,-1434.68"/>
<polygon fill="black" stroke="black" points="209.81,-1409.26 201.4,-1402.82 203.96,-1413.1 209.81,-1409.26"/>
</g>
<!-- 10&#45;&gt;12 -->
<g id="edge15" class="edge">
<title>10&#45;&gt;12</title>
<path fill="none" stroke="black" d="M238.73,-1429.68C240.32,-1404.6 242.66,-1367.63 244.26,-1342.49"/>
<polygon fill="black" stroke="black" points="235.23,-1429.67 238.09,-1439.87 242.21,-1430.11 235.23,-1429.67"/>
<polygon fill="black" stroke="black" points="247.77,-1342.39 244.91,-1332.19 240.78,-1341.95 247.77,-1342.39"/>
</g>
<!-- 11&#45;&gt;12 -->
<g id="edge16" class="edge">
<title>11&#45;&gt;12</title>
<path fill="none" stroke="black" d="M209.17,-1361.87C215.19,-1354.21 221.88,-1345.69 227.9,-1338.04"/>
<polygon fill="black" stroke="black" points="206.36,-1359.79 202.93,-1369.81 211.86,-1364.11 206.36,-1359.79"/>
<polygon fill="black" stroke="black" points="230.66,-1340.18 234.09,-1330.16 225.16,-1335.86 230.66,-1340.18"/>
</g>
<!-- 13 -->
<g id="node13" class="node">
<title>13</title>
<ellipse fill="none" stroke="black" cx="246" cy="-1242" rx="27" ry="18"/>
<text text-anchor="middle" x="246" y="-1238.3" font-family="Times,serif" font-size="14.00">13</text>
</g>
<!-- 12&#45;&gt;13 -->
<g id="edge17" class="edge">
<title>12&#45;&gt;13</title>
<path fill="none" stroke="black" d="M246,-1285.67C246,-1280.69 246,-1275.49 246,-1270.51"/>
<polygon fill="black" stroke="black" points="242.5,-1285.7 246,-1295.7 249.5,-1285.7 242.5,-1285.7"/>
<polygon fill="black" stroke="black" points="249.5,-1270.1 246,-1260.1 242.5,-1270.1 249.5,-1270.1"/>
</g>
<!-- 14 -->
<g id="node14" class="node">
<title>14</title>
<ellipse fill="none" stroke="black" cx="219" cy="-1170" rx="27" ry="18"/>
<text text-anchor="middle" x="219" y="-1166.3" font-family="Times,serif" font-size="14.00">14</text>
</g>
<!-- 13&#45;&gt;14 -->
<g id="edge18" class="edge">
<title>13&#45;&gt;14</title>
<path fill="none" stroke="black" d="M235.99,-1215.06C233.76,-1209.26 231.38,-1203.1 229.14,-1197.29"/>
<polygon fill="black" stroke="black" points="232.74,-1216.34 239.6,-1224.41 239.27,-1213.82 232.74,-1216.34"/>
<polygon fill="black" stroke="black" points="232.4,-1196.03 225.54,-1187.96 225.87,-1198.55 232.4,-1196.03"/>
</g>
<!-- 37 -->
<g id="node37" class="node">
<title>37</title>
<ellipse fill="none" stroke="black" cx="274" cy="-1098" rx="27" ry="18"/>
<text text-anchor="middle" x="274" y="-1094.3" font-family="Times,serif" font-size="14.00">37</text>
</g>
<!-- 13&#45;&gt;37 -->
<g id="edge19" class="edge">
<title>13&#45;&gt;37</title>
<path fill="none" stroke="black" d="M251.31,-1214.06C256.28,-1188.88 263.65,-1151.47 268.64,-1126.2"/>
<polygon fill="black" stroke="black" points="247.88,-1213.38 249.38,-1223.87 254.75,-1214.74 247.88,-1213.38"/>
<polygon fill="black" stroke="black" points="272.11,-1126.68 270.61,-1116.19 265.24,-1125.32 272.11,-1126.68"/>
</g>
<!-- 15 -->
<g id="node15" class="node">
<title>15</title>
<ellipse fill="none" stroke="black" cx="179" cy="-1098" rx="27" ry="18"/>
<text text-anchor="middle" x="179" y="-1094.3" font-family="Times,serif" font-size="14.00">15</text>
</g>
<!-- 14&#45;&gt;15 -->
<g id="edge20" class="edge">
<title>14&#45;&gt;15</title>
<path fill="none" stroke="black" d="M204.71,-1144C201.03,-1137.55 197.06,-1130.6 193.37,-1124.15"/>
<polygon fill="black" stroke="black" points="201.72,-1145.82 209.72,-1152.76 207.8,-1142.35 201.72,-1145.82"/>
<polygon fill="black" stroke="black" points="196.23,-1122.09 188.23,-1115.15 190.15,-1125.57 196.23,-1122.09"/>
</g>
<!-- 14&#45;&gt;37 -->
<g id="edge21" class="edge">
<title>14&#45;&gt;37</title>
<path fill="none" stroke="black" d="M237.17,-1145.87C243.19,-1138.21 249.88,-1129.69 255.9,-1122.04"/>
<polygon fill="black" stroke="black" points="234.36,-1143.79 230.93,-1153.81 239.86,-1148.11 234.36,-1143.79"/>
<polygon fill="black" stroke="black" points="258.66,-1124.18 262.09,-1114.16 253.16,-1119.86 258.66,-1124.18"/>
</g>
<!-- 16 -->
<g id="node16" class="node">
<title>16</title>
<ellipse fill="none" stroke="black" cx="107" cy="-1026" rx="27" ry="18"/>
<text text-anchor="middle" x="107" y="-1022.3" font-family="Times,serif" font-size="14.00">16</text>
</g>
<!-- 15&#45;&gt;16 -->
<g id="edge22" class="edge">
<title>15&#45;&gt;16</title>
<path fill="none" stroke="black" d="M156.96,-1075.57C148.13,-1066.99 137.99,-1057.13 129.15,-1048.54"/>
<polygon fill="black" stroke="black" points="154.82,-1078.37 164.43,-1082.83 159.7,-1073.35 154.82,-1078.37"/>
<polygon fill="black" stroke="black" points="131.41,-1045.85 121.8,-1041.38 126.53,-1050.87 131.41,-1045.85"/>
</g>
<!-- 17 -->
<g id="node17" class="node">
<title>17</title>
<ellipse fill="none" stroke="black" cx="179" cy="-1026" rx="27" ry="18"/>
<text text-anchor="middle" x="179" y="-1022.3" font-family="Times,serif" font-size="14.00">17</text>
</g>
<!-- 15&#45;&gt;17 -->
<g id="edge23" class="edge">
<title>15&#45;&gt;17</title>
<path fill="none" stroke="black" d="M179,-1069.67C179,-1064.69 179,-1059.49 179,-1054.51"/>
<polygon fill="black" stroke="black" points="175.5,-1069.7 179,-1079.7 182.5,-1069.7 175.5,-1069.7"/>
<polygon fill="black" stroke="black" points="182.5,-1054.1 179,-1044.1 175.5,-1054.1 182.5,-1054.1"/>
</g>
<!-- 18 -->
<g id="node18" class="node">
<title>18</title>
<ellipse fill="none" stroke="black" cx="170" cy="-954" rx="27" ry="18"/>
<text text-anchor="middle" x="170" y="-950.3" font-family="Times,serif" font-size="14.00">18</text>
</g>
<!-- 17&#45;&gt;18 -->
<g id="edge24" class="edge">
<title>17&#45;&gt;18</title>
<path fill="none" stroke="black" d="M175.53,-998.01C174.87,-992.87 174.18,-987.5 173.52,-982.36"/>
<polygon fill="black" stroke="black" points="172.07,-998.58 176.82,-1008.05 179.02,-997.69 172.07,-998.58"/>
<polygon fill="black" stroke="black" points="176.97,-981.75 172.22,-972.28 170.02,-982.64 176.97,-981.75"/>
</g>
<!-- 19 -->
<g id="node19" class="node">
<title>19</title>
<ellipse fill="none" stroke="black" cx="170" cy="-882" rx="27" ry="18"/>
<text text-anchor="middle" x="170" y="-878.3" font-family="Times,serif" font-size="14.00">19</text>
</g>
<!-- 18&#45;&gt;19 -->
<g id="edge25" class="edge">
<title>18&#45;&gt;19</title>
<path fill="none" stroke="black" d="M170,-925.67C170,-920.69 170,-915.49 170,-910.51"/>
<polygon fill="black" stroke="black" points="166.5,-925.7 170,-935.7 173.5,-925.7 166.5,-925.7"/>
<polygon fill="black" stroke="black" points="173.5,-910.1 170,-900.1 166.5,-910.1 173.5,-910.1"/>
</g>
<!-- 20 -->
<g id="node20" class="node">
<title>20</title>
<ellipse fill="none" stroke="black" cx="170" cy="-810" rx="27" ry="18"/>
<text text-anchor="middle" x="170" y="-806.3" font-family="Times,serif" font-size="14.00">20</text>
</g>
<!-- 19&#45;&gt;20 -->
<g id="edge26" class="edge">
<title>19&#45;&gt;20</title>
<path fill="none" stroke="black" d="M170,-853.67C170,-848.69 170,-843.49 170,-838.51"/>
<polygon fill="black" stroke="black" points="166.5,-853.7 170,-863.7 173.5,-853.7 166.5,-853.7"/>
<polygon fill="black" stroke="black" points="173.5,-838.1 170,-828.1 166.5,-838.1 173.5,-838.1"/>
</g>
<!-- 21 -->
<g id="node21" class="node">
<title>21</title>
<ellipse fill="none" stroke="black" cx="115" cy="-738" rx="27" ry="18"/>
<text text-anchor="middle" x="115" y="-734.3" font-family="Times,serif" font-size="14.00">21</text>
</g>
<!-- 20&#45;&gt;21 -->
<g id="edge27" class="edge">
<title>20&#45;&gt;21</title>
<path fill="none" stroke="black" d="M151.83,-785.87C145.81,-778.21 139.12,-769.69 133.1,-762.04"/>
<polygon fill="black" stroke="black" points="149.14,-788.11 158.07,-793.81 154.64,-783.79 149.14,-788.11"/>
<polygon fill="black" stroke="black" points="135.84,-759.86 126.91,-754.16 130.34,-764.18 135.84,-759.86"/>
</g>
<!-- 22 -->
<g id="node22" class="node">
<title>22</title>
<ellipse fill="none" stroke="black" cx="115" cy="-666" rx="27" ry="18"/>
<text text-anchor="middle" x="115" y="-662.3" font-family="Times,serif" font-size="14.00">22</text>
</g>
<!-- 20&#45;&gt;22 -->
<g id="edge28" class="edge">
<title>20&#45;&gt;22</title>
<path fill="none" stroke="black" d="M166.98,-781.87C164.3,-763.8 159.46,-739.83 151,-720 146.61,-709.72 140.12,-699.34 133.85,-690.53"/>
<polygon fill="black" stroke="black" points="163.54,-782.57 168.34,-792.01 170.48,-781.63 163.54,-782.57"/>
<polygon fill="black" stroke="black" points="136.52,-688.24 127.75,-682.3 130.89,-692.41 136.52,-688.24"/>
</g>
<!-- 21&#45;&gt;22 -->
<g id="edge29" class="edge">
<title>21&#45;&gt;22</title>
<path fill="none" stroke="black" d="M115,-709.67C115,-704.69 115,-699.49 115,-694.51"/>
<polygon fill="black" stroke="black" points="111.5,-709.7 115,-719.7 118.5,-709.7 111.5,-709.7"/>
<polygon fill="black" stroke="black" points="118.5,-694.1 115,-684.1 111.5,-694.1 118.5,-694.1"/>
</g>
<!-- 23 -->
<g id="node23" class="node">
<title>23</title>
<ellipse fill="none" stroke="black" cx="43" cy="-594" rx="27" ry="18"/>
<text text-anchor="middle" x="43" y="-590.3" font-family="Times,serif" font-size="14.00">23</text>
</g>
<!-- 22&#45;&gt;23 -->
<g id="edge30" class="edge">
<title>22&#45;&gt;23</title>
<path fill="none" stroke="black" d="M92.96,-643.57C84.13,-634.99 73.99,-625.13 65.15,-616.54"/>
<polygon fill="black" stroke="black" points="90.82,-646.37 100.43,-650.83 95.7,-641.35 90.82,-646.37"/>
<polygon fill="black" stroke="black" points="67.41,-613.85 57.8,-609.38 62.53,-618.87 67.41,-613.85"/>
</g>
<!-- 25 -->
<g id="node25" class="node">
<title>25</title>
<ellipse fill="none" stroke="black" cx="115" cy="-594" rx="27" ry="18"/>
<text text-anchor="middle" x="115" y="-590.3" font-family="Times,serif" font-size="14.00">25</text>
</g>
<!-- 22&#45;&gt;25 -->
<g id="edge31" class="edge">
<title>22&#45;&gt;25</title>
<path fill="none" stroke="black" d="M115,-637.67C115,-632.69 115,-627.49 115,-622.51"/>
<polygon fill="black" stroke="black" points="111.5,-637.7 115,-647.7 118.5,-637.7 111.5,-637.7"/>
<polygon fill="black" stroke="black" points="118.5,-622.1 115,-612.1 111.5,-622.1 118.5,-622.1"/>
</g>
<!-- 26 -->
<g id="node26" class="node">
<title>26</title>
<ellipse fill="none" stroke="black" cx="187" cy="-594" rx="27" ry="18"/>
<text text-anchor="middle" x="187" y="-590.3" font-family="Times,serif" font-size="14.00">26</text>
</g>
<!-- 22&#45;&gt;26 -->
<g id="edge32" class="edge">
<title>22&#45;&gt;26</title>
<path fill="none" stroke="black" d="M137.04,-643.57C145.87,-634.99 156.01,-625.13 164.85,-616.54"/>
<polygon fill="black" stroke="black" points="134.3,-641.35 129.57,-650.83 139.18,-646.37 134.3,-641.35"/>
<polygon fill="black" stroke="black" points="167.47,-618.87 172.2,-609.38 162.59,-613.85 167.47,-618.87"/>
</g>
<!-- 24 -->
<g id="node24" class="node">
<title>24</title>
<ellipse fill="none" stroke="black" cx="43" cy="-522" rx="27" ry="18"/>
<text text-anchor="middle" x="43" y="-518.3" font-family="Times,serif" font-size="14.00">24</text>
</g>
<!-- 23&#45;&gt;24 -->
<g id="edge33" class="edge">
<title>23&#45;&gt;24</title>
<path fill="none" stroke="black" d="M43,-565.67C43,-560.69 43,-555.49 43,-550.51"/>
<polygon fill="black" stroke="black" points="39.5,-565.7 43,-575.7 46.5,-565.7 39.5,-565.7"/>
<polygon fill="black" stroke="black" points="46.5,-550.1 43,-540.1 39.5,-550.1 46.5,-550.1"/>
</g>
<!-- 27 -->
<g id="node27" class="node">
<title>27</title>
<ellipse fill="none" stroke="black" cx="186" cy="-522" rx="27" ry="18"/>
<text text-anchor="middle" x="186" y="-518.3" font-family="Times,serif" font-size="14.00">27</text>
</g>
<!-- 26&#45;&gt;27 -->
<g id="edge34" class="edge">
<title>26&#45;&gt;27</title>
<path fill="none" stroke="black" d="M186.61,-565.67C186.54,-560.55 186.46,-555.21 186.39,-550.1"/>
<polygon fill="black" stroke="black" points="183.11,-565.75 186.75,-575.7 190.11,-565.65 183.11,-565.75"/>
<polygon fill="black" stroke="black" points="189.89,-550.05 186.24,-540.1 182.89,-550.15 189.89,-550.05"/>
</g>
<!-- 28 -->
<g id="node28" class="node">
<title>28</title>
<ellipse fill="none" stroke="black" cx="112" cy="-450" rx="27" ry="18"/>
<text text-anchor="middle" x="112" y="-446.3" font-family="Times,serif" font-size="14.00">28</text>
</g>
<!-- 27&#45;&gt;28 -->
<g id="edge35" class="edge">
<title>27&#45;&gt;28</title>
<path fill="none" stroke="black" d="M163.63,-499.84C154.35,-491.06 143.61,-480.9 134.33,-472.13"/>
<polygon fill="black" stroke="black" points="161.36,-502.51 171.02,-506.83 166.17,-497.42 161.36,-502.51"/>
<polygon fill="black" stroke="black" points="136.62,-469.47 126.95,-465.14 131.81,-474.56 136.62,-469.47"/>
</g>
<!-- 29 -->
<g id="node29" class="node">
<title>29</title>
<ellipse fill="none" stroke="black" cx="186" cy="-450" rx="27" ry="18"/>
<text text-anchor="middle" x="186" y="-446.3" font-family="Times,serif" font-size="14.00">29</text>
</g>
<!-- 27&#45;&gt;29 -->
<g id="edge36" class="edge">
<title>27&#45;&gt;29</title>
<path fill="none" stroke="black" d="M186,-493.67C186,-488.69 186,-483.49 186,-478.51"/>
<polygon fill="black" stroke="black" points="182.5,-493.7 186,-503.7 189.5,-493.7 182.5,-493.7"/>
<polygon fill="black" stroke="black" points="189.5,-478.1 186,-468.1 182.5,-478.1 189.5,-478.1"/>
</g>
<!-- 30 -->
<g id="node30" class="node">
<title>30</title>
<ellipse fill="none" stroke="black" cx="241" cy="-378" rx="27" ry="18"/>
<text text-anchor="middle" x="241" y="-374.3" font-family="Times,serif" font-size="14.00">30</text>
</g>
<!-- 27&#45;&gt;30 -->
<g id="edge37" class="edge">
<title>27&#45;&gt;30</title>
<path fill="none" stroke="black" d="M204.85,-497.47C211.12,-488.66 217.61,-478.28 222,-468 230.46,-448.17 235.3,-424.2 237.98,-406.13"/>
<polygon fill="black" stroke="black" points="201.89,-495.59 198.75,-505.7 207.52,-499.76 201.89,-495.59"/>
<polygon fill="black" stroke="black" points="241.48,-406.37 239.34,-395.99 234.54,-405.43 241.48,-406.37"/>
</g>
<!-- 31 -->
<g id="node31" class="node">
<title>31</title>
<ellipse fill="none" stroke="black" cx="108" cy="-378" rx="27" ry="18"/>
<text text-anchor="middle" x="108" y="-374.3" font-family="Times,serif" font-size="14.00">31</text>
</g>
<!-- 28&#45;&gt;31 -->
<g id="edge38" class="edge">
<title>28&#45;&gt;31</title>
<path fill="none" stroke="black" d="M110.44,-421.67C110.15,-416.55 109.84,-411.21 109.55,-406.1"/>
<polygon fill="black" stroke="black" points="106.95,-421.91 111.01,-431.7 113.93,-421.51 106.95,-421.91"/>
<polygon fill="black" stroke="black" points="113.04,-405.89 108.98,-396.1 106.05,-406.29 113.04,-405.89"/>
</g>
<!-- 29&#45;&gt;30 -->
<g id="edge39" class="edge">
<title>29&#45;&gt;30</title>
<path fill="none" stroke="black" d="M204.17,-425.87C210.19,-418.21 216.88,-409.69 222.9,-402.04"/>
<polygon fill="black" stroke="black" points="201.36,-423.79 197.93,-433.81 206.86,-428.11 201.36,-423.79"/>
<polygon fill="black" stroke="black" points="225.66,-404.18 229.09,-394.16 220.16,-399.86 225.66,-404.18"/>
</g>
<!-- 32 -->
<g id="node32" class="node">
<title>32</title>
<ellipse fill="none" stroke="black" cx="100" cy="-306" rx="27" ry="18"/>
<text text-anchor="middle" x="100" y="-302.3" font-family="Times,serif" font-size="14.00">32</text>
</g>
<!-- 31&#45;&gt;32 -->
<g id="edge40" class="edge">
<title>31&#45;&gt;32</title>
<path fill="none" stroke="black" d="M104.88,-349.67C104.29,-344.55 103.68,-339.21 103.1,-334.1"/>
<polygon fill="black" stroke="black" points="101.41,-350.16 106.02,-359.7 108.36,-349.36 101.41,-350.16"/>
<polygon fill="black" stroke="black" points="106.57,-333.64 101.95,-324.1 99.61,-334.44 106.57,-333.64"/>
</g>
<!-- 33 -->
<g id="node33" class="node">
<title>33</title>
<ellipse fill="none" stroke="black" cx="27" cy="-234" rx="27" ry="18"/>
<text text-anchor="middle" x="27" y="-230.3" font-family="Times,serif" font-size="14.00">33</text>
</g>
<!-- 32&#45;&gt;33 -->
<g id="edge41" class="edge">
<title>32&#45;&gt;33</title>
<path fill="none" stroke="black" d="M77.93,-283.84C68.78,-275.06 58.18,-264.9 49.03,-256.13"/>
<polygon fill="black" stroke="black" points="75.59,-286.44 85.23,-290.83 80.43,-281.39 75.59,-286.44"/>
<polygon fill="black" stroke="black" points="51.39,-253.54 41.75,-249.14 46.55,-258.59 51.39,-253.54"/>
</g>
<!-- 34 -->
<g id="node34" class="node">
<title>34</title>
<ellipse fill="none" stroke="black" cx="99" cy="-234" rx="27" ry="18"/>
<text text-anchor="middle" x="99" y="-230.3" font-family="Times,serif" font-size="14.00">34</text>
</g>
<!-- 32&#45;&gt;34 -->
<g id="edge42" class="edge">
<title>32&#45;&gt;34</title>
<path fill="none" stroke="black" d="M99.61,-277.67C99.54,-272.55 99.46,-267.21 99.39,-262.1"/>
<polygon fill="black" stroke="black" points="96.11,-277.75 99.75,-287.7 103.11,-277.65 96.11,-277.75"/>
<polygon fill="black" stroke="black" points="102.89,-262.05 99.24,-252.1 95.89,-262.15 102.89,-262.05"/>
</g>
<!-- 35 -->
<g id="node35" class="node">
<title>35</title>
<ellipse fill="none" stroke="black" cx="171" cy="-234" rx="27" ry="18"/>
<text text-anchor="middle" x="171" y="-230.3" font-family="Times,serif" font-size="14.00">35</text>
</g>
<!-- 32&#45;&gt;35 -->
<g id="edge43" class="edge">
<title>32&#45;&gt;35</title>
<path fill="none" stroke="black" d="M122.03,-283.28C130.65,-274.78 140.52,-265.05 149.13,-256.56"/>
<polygon fill="black" stroke="black" points="119.38,-280.98 114.71,-290.5 124.29,-285.97 119.38,-280.98"/>
<polygon fill="black" stroke="black" points="151.64,-259 156.31,-249.49 146.73,-254.01 151.64,-259"/>
</g>
<!-- 36 -->
<g id="node36" class="node">
<title>36</title>
<ellipse fill="none" stroke="black" cx="170" cy="-162" rx="27" ry="18"/>
<text text-anchor="middle" x="170" y="-158.3" font-family="Times,serif" font-size="14.00">36</text>
</g>
<!-- 35&#45;&gt;36 -->
<g id="edge44" class="edge">
<title>35&#45;&gt;36</title>
<path fill="none" stroke="black" d="M170.61,-205.67C170.54,-200.55 170.46,-195.21 170.39,-190.1"/>
<polygon fill="black" stroke="black" points="167.11,-205.75 170.75,-215.7 174.11,-205.65 167.11,-205.75"/>
<polygon fill="black" stroke="black" points="173.89,-190.05 170.24,-180.1 166.89,-190.15 173.89,-190.05"/>
</g>
<!-- 43 -->
<g id="node43" class="node">
<title>43</title>
<ellipse fill="none" stroke="black" cx="225" cy="-90" rx="27" ry="18"/>
<text text-anchor="middle" x="225" y="-86.3" font-family="Times,serif" font-size="14.00">43</text>
</g>
<!-- 36&#45;&gt;43 -->
<g id="edge45" class="edge">
<title>36&#45;&gt;43</title>
<path fill="none" stroke="black" d="M188.17,-137.87C194.19,-130.21 200.88,-121.69 206.9,-114.04"/>
<polygon fill="black" stroke="black" points="185.36,-135.79 181.93,-145.81 190.86,-140.11 185.36,-135.79"/>
<polygon fill="black" stroke="black" points="209.66,-116.18 213.09,-106.16 204.16,-111.86 209.66,-116.18"/>
</g>
<!-- 47 -->
<g id="node47" class="node">
<title>47</title>
<ellipse fill="none" stroke="black" cx="288" cy="-18" rx="27" ry="18"/>
<text text-anchor="middle" x="288" y="-14.3" font-family="Times,serif" font-size="14.00">47</text>
</g>
<!-- 36&#45;&gt;47 -->
<g id="edge46" class="edge">
<title>36&#45;&gt;47</title>
<path fill="none" stroke="black" d="M169.97,-133.73C171.25,-114.73 175.68,-89.71 189,-72 204.95,-50.79 231.94,-37.15 253.71,-29.02"/>
<polygon fill="black" stroke="black" points="166.47,-133.72 169.54,-143.85 173.46,-134.01 166.47,-133.72"/>
<polygon fill="black" stroke="black" points="255,-32.28 263.29,-25.67 252.69,-25.67 255,-32.28"/>
</g>
<!-- 38 -->
<g id="node38" class="node">
<title>38</title>
<ellipse fill="none" stroke="black" cx="297" cy="-1026" rx="27" ry="18"/>
<text text-anchor="middle" x="297" y="-1022.3" font-family="Times,serif" font-size="14.00">38</text>
</g>
<!-- 37&#45;&gt;38 -->
<g id="edge47" class="edge">
<title>37&#45;&gt;38</title>
<path fill="none" stroke="black" d="M282.73,-1070.43C284.57,-1064.84 286.5,-1058.94 288.34,-1053.36"/>
<polygon fill="black" stroke="black" points="279.36,-1069.46 279.57,-1080.05 286.01,-1071.65 279.36,-1069.46"/>
<polygon fill="black" stroke="black" points="291.69,-1054.38 291.48,-1043.79 285.04,-1052.2 291.69,-1054.38"/>
</g>
<!-- 39 -->
<g id="node39" class="node">
<title>39</title>
<ellipse fill="none" stroke="black" cx="242" cy="-954" rx="27" ry="18"/>
<text text-anchor="middle" x="242" y="-950.3" font-family="Times,serif" font-size="14.00">39</text>
</g>
<!-- 37&#45;&gt;39 -->
<g id="edge48" class="edge">
<title>37&#45;&gt;39</title>
<path fill="none" stroke="black" d="M267.19,-1069.91C265.15,-1061.61 262.94,-1052.44 261,-1044 256.26,-1023.34 251.27,-999.89 247.6,-982.25"/>
<polygon fill="black" stroke="black" points="263.85,-1070.98 269.65,-1079.85 270.64,-1069.3 263.85,-1070.98"/>
<polygon fill="black" stroke="black" points="250.95,-981.18 245.49,-972.1 244.09,-982.6 250.95,-981.18"/>
</g>
<!-- goal -->
<g id="node49" class="node">
<title>goal</title>
<ellipse fill="none" stroke="black" cx="356" cy="-954" rx="30.59" ry="18"/>
<text text-anchor="middle" x="356" y="-950.3" font-family="Times,serif" font-size="14.00">goal</text>
</g>
<!-- 37&#45;&gt;goal -->
<g id="edge49" class="edge">
<title>37&#45;&gt;goal</title>
<path fill="none" stroke="black" d="M300.72,-1078.62C312.2,-1069.45 324.83,-1057.45 333,-1044 344.43,-1025.19 350.22,-1000.81 353.13,-982.33"/>
<polygon fill="black" stroke="black" points="298.47,-1075.93 292.64,-1084.77 302.72,-1081.49 298.47,-1075.93"/>
<polygon fill="black" stroke="black" points="356.62,-982.6 354.53,-972.21 349.69,-981.64 356.62,-982.6"/>
</g>
<!-- 38&#45;&gt;39 -->
<g id="edge50" class="edge">
<title>38&#45;&gt;39</title>
<path fill="none" stroke="black" d="M278.83,-1001.87C272.81,-994.21 266.12,-985.69 260.1,-978.04"/>
<polygon fill="black" stroke="black" points="276.14,-1004.11 285.07,-1009.81 281.64,-999.79 276.14,-1004.11"/>
<polygon fill="black" stroke="black" points="262.84,-975.86 253.91,-970.16 257.34,-980.18 262.84,-975.86"/>
</g>
<!-- 40 -->
<g id="node40" class="node">
<title>40</title>
<ellipse fill="none" stroke="black" cx="297" cy="-882" rx="27" ry="18"/>
<text text-anchor="middle" x="297" y="-878.3" font-family="Times,serif" font-size="14.00">40</text>
</g>
<!-- 38&#45;&gt;40 -->
<g id="edge51" class="edge">
<title>38&#45;&gt;40</title>
<path fill="none" stroke="black" d="M297,-997.68C297,-972.6 297,-935.63 297,-910.49"/>
<polygon fill="black" stroke="black" points="293.5,-997.87 297,-1007.87 300.5,-997.87 293.5,-997.87"/>
<polygon fill="black" stroke="black" points="300.5,-910.19 297,-900.19 293.5,-910.19 300.5,-910.19"/>
</g>
<!-- 38&#45;&gt;goal -->
<g id="edge52" class="edge">
<title>38&#45;&gt;goal</title>
<path fill="none" stroke="black" d="M316.4,-1001.99C322.76,-994.44 329.83,-986.05 336.22,-978.47"/>
<polygon fill="black" stroke="black" points="313.57,-999.91 309.8,-1009.81 318.92,-1004.42 313.57,-999.91"/>
<polygon fill="black" stroke="black" points="339.05,-980.55 342.81,-970.64 333.69,-976.03 339.05,-980.55"/>
</g>
<!-- 42 -->
<g id="node42" class="node">
<title>42</title>
<ellipse fill="none" stroke="black" cx="352" cy="-234" rx="27" ry="18"/>
<text text-anchor="middle" x="352" y="-230.3" font-family="Times,serif" font-size="14.00">42</text>
</g>
<!-- 40&#45;&gt;42 -->
<g id="edge53" class="edge">
<title>40&#45;&gt;42</title>
<path fill="none" stroke="black" d="M297,-853.92C297,-825.35 297,-779 297,-739 297,-739 297,-739 297,-377 297,-336.55 300.12,-325.2 316,-288 320.39,-277.72 326.88,-267.34 333.15,-258.53"/>
<polygon fill="black" stroke="black" points="293.5,-853.95 297,-863.95 300.5,-853.95 293.5,-853.95"/>
<polygon fill="black" stroke="black" points="336.11,-260.41 339.25,-250.3 330.48,-256.24 336.11,-260.41"/>
</g>
<!-- 41 -->
<g id="node41" class="node">
<title>41</title>
<ellipse fill="none" stroke="black" cx="352" cy="-306" rx="27" ry="18"/>
<text text-anchor="middle" x="352" y="-302.3" font-family="Times,serif" font-size="14.00">41</text>
</g>
<!-- 41&#45;&gt;42 -->
<g id="edge54" class="edge">
<title>41&#45;&gt;42</title>
<path fill="none" stroke="black" d="M352,-277.67C352,-272.69 352,-267.49 352,-262.51"/>
<polygon fill="black" stroke="black" points="348.5,-277.7 352,-287.7 355.5,-277.7 348.5,-277.7"/>
<polygon fill="black" stroke="black" points="355.5,-262.1 352,-252.1 348.5,-262.1 355.5,-262.1"/>
</g>
<!-- 42&#45;&gt;43 -->
<g id="edge55" class="edge">
<title>42&#45;&gt;43</title>
<path fill="none" stroke="black" d="M316.65,-224.42C292.6,-216.75 261.98,-203.06 244,-180 230.37,-162.53 225.97,-137.49 224.78,-118.41"/>
<polygon fill="black" stroke="black" points="315.92,-227.85 326.5,-227.35 317.91,-221.14 315.92,-227.85"/>
<polygon fill="black" stroke="black" points="228.27,-118.11 224.41,-108.25 221.28,-118.37 228.27,-118.11"/>
</g>
<!-- 44 -->
<g id="node44" class="node">
<title>44</title>
<ellipse fill="none" stroke="black" cx="280" cy="-162" rx="27" ry="18"/>
<text text-anchor="middle" x="280" y="-158.3" font-family="Times,serif" font-size="14.00">44</text>
</g>
<!-- 42&#45;&gt;44 -->
<g id="edge56" class="edge">
<title>42&#45;&gt;44</title>
<path fill="none" stroke="black" d="M329.96,-211.57C321.13,-202.99 310.99,-193.13 302.15,-184.54"/>
<polygon fill="black" stroke="black" points="327.82,-214.37 337.43,-218.83 332.7,-209.35 327.82,-214.37"/>
<polygon fill="black" stroke="black" points="304.41,-181.85 294.8,-177.38 299.53,-186.87 304.41,-181.85"/>
</g>
<!-- 45 -->
<g id="node45" class="node">
<title>45</title>
<ellipse fill="none" stroke="black" cx="352" cy="-162" rx="27" ry="18"/>
<text text-anchor="middle" x="352" y="-158.3" font-family="Times,serif" font-size="14.00">45</text>
</g>
<!-- 42&#45;&gt;45 -->
<g id="edge57" class="edge">
<title>42&#45;&gt;45</title>
<path fill="none" stroke="black" d="M352,-205.67C352,-200.69 352,-195.49 352,-190.51"/>
<polygon fill="black" stroke="black" points="348.5,-205.7 352,-215.7 355.5,-205.7 348.5,-205.7"/>
<polygon fill="black" stroke="black" points="355.5,-190.1 352,-180.1 348.5,-190.1 355.5,-190.1"/>
</g>
<!-- 46 -->
<g id="node46" class="node">
<title>46</title>
<ellipse fill="none" stroke="black" cx="352" cy="-90" rx="27" ry="18"/>
<text text-anchor="middle" x="352" y="-86.3" font-family="Times,serif" font-size="14.00">46</text>
</g>
<!-- 42&#45;&gt;46 -->
<g id="edge58" class="edge">
<title>42&#45;&gt;46</title>
<path fill="none" stroke="black" d="M372.07,-209.92C378.46,-201.15 384.71,-190.69 388,-180 392.7,-164.71 392.7,-159.29 388,-144 384.71,-133.31 378.46,-122.85 372.07,-114.08"/>
<polygon fill="black" stroke="black" points="369.12,-208.02 365.75,-218.07 374.65,-212.31 369.12,-208.02"/>
<polygon fill="black" stroke="black" points="374.65,-111.69 365.75,-105.93 369.12,-115.98 374.65,-111.69"/>
</g>
<!-- 42&#45;&gt;47 -->
<g id="edge59" class="edge">
<title>42&#45;&gt;47</title>
<path fill="none" stroke="black" d="M377.59,-213.77C387.51,-204.74 397.73,-193.08 403,-180 421.11,-135.05 417.11,-110.74 388,-72 371.93,-50.61 344.67,-36.98 322.66,-28.91"/>
<polygon fill="black" stroke="black" points="375.14,-211.27 369.81,-220.43 379.68,-216.59 375.14,-211.27"/>
<polygon fill="black" stroke="black" points="323.58,-25.52 312.98,-25.58 321.3,-32.14 323.58,-25.52"/>
</g>
<!-- 43&#45;&gt;47 -->
<g id="edge60" class="edge">
<title>43&#45;&gt;47</title>
<path fill="none" stroke="black" d="M245.33,-66.41C252.54,-58.4 260.64,-49.4 267.83,-41.41"/>
<polygon fill="black" stroke="black" points="242.45,-64.38 238.36,-74.15 247.65,-69.06 242.45,-64.38"/>
<polygon fill="black" stroke="black" points="270.57,-43.6 274.66,-33.82 265.37,-38.92 270.57,-43.6"/>
</g>
<!-- 45&#45;&gt;46 -->
<g id="edge61" class="edge">
<title>45&#45;&gt;46</title>
<path fill="none" stroke="black" d="M352,-133.67C352,-128.69 352,-123.49 352,-118.51"/>
<polygon fill="black" stroke="black" points="348.5,-133.7 352,-143.7 355.5,-133.7 348.5,-133.7"/>
<polygon fill="black" stroke="black" points="355.5,-118.1 352,-108.1 348.5,-118.1 355.5,-118.1"/>
</g>
<!-- 46&#45;&gt;47 -->
<g id="edge62" class="edge">
<title>46&#45;&gt;47</title>
<path fill="none" stroke="black" d="M331.64,-66.73C324.19,-58.58 315.77,-49.37 308.33,-41.23"/>
<polygon fill="black" stroke="black" points="329.1,-69.14 338.43,-74.15 334.26,-64.41 329.1,-69.14"/>
<polygon fill="black" stroke="black" points="310.88,-38.84 301.55,-33.82 305.72,-43.57 310.88,-38.84"/>
</g>
</g>
</svg>
